<?xml version="1.0" encoding="utf-8"?>
<!-- Generator: Adobe Illustrator 23.0.3, SVG Export Plug-In . SVG Version: 6.00 Build 0)  -->
<svg version="1.1" id="Layer_1" xmlns="http://www.w3.org/2000/svg" xmlns:xlink="http://www.w3.org/1999/xlink" x="0px" y="0px"
	 viewBox="0 0 219.52 134.3" style="enable-background:new 0 0 219.52 134.3;" xml:space="preserve">
<style type="text/css">
	.st0{fill:#FFFFFF;}
	.st1{fill:#B21E8C;}
	.st2{fill:#0087CE;}
	.st3{fill:#00A451;}
	.st4{fill:#F5911E;}
	.st5{fill:#ED4824;}
	.st6{fill:#F4F5F5;}
	.st7{fill:#04974A;}
	.st8{fill:none;stroke:#04974A;stroke-width:0.13;}
	.st9{fill:#EB2227;}
	.st10{fill:none;stroke:#EB2227;stroke-width:0.13;}
	.st11{fill:#FBED23;}
	.st12{fill:none;stroke:#FBED23;stroke-width:0.13;}
	.st13{fill:#414042;}
	.st14{fill:#6D6E71;}
	.st15{fill:#00448A;}
	.st16{fill:url(#Triangle_Top_Light_1_);}
	.st17{fill:#050505;}
	.st18{fill:url(#SVGID_1_);}
	.st19{fill:#A6D2E5;}
	.st20{fill:#009FC4;}
	.st21{fill:#507FB7;}
	.st22{fill:url(#Sphere_Top_1_);}
	.st23{opacity:0.25;}
	.st24{fill:#ED9A2E;}
	.st25{opacity:0.2;}
	.st26{fill:#000038;}
	.st27{fill:#0071BC;}
	.st28{fill:none;stroke:#C6C6C6;stroke-width:3;stroke-miterlimit:10;}
	.st29{opacity:0.17;fill:#FFFFFF;}
	.st30{fill:none;stroke:#C6C6C6;stroke-width:2;stroke-miterlimit:10;}
	.st31{fill:#C6C6C6;}
	.st32{fill:url(#SVGID_2_);}
	.st33{fill:#07A6E5;}
	.st34{fill:url(#SVGID_3_);}
	.st35{fill:#0068FF;}
	.st36{fill:url(#SVGID_4_);}
	.st37{fill:#00BC3F;}
	.st38{fill:url(#SVGID_5_);}
	.st39{fill:#7A00E5;}
	.st40{fill:url(#SVGID_6_);}
	.st41{fill:#D300C9;}
	.st42{fill:url(#SVGID_7_);}
	.st43{opacity:0.2;fill:#606060;}
	.st44{fill:none;stroke:#F7931E;stroke-width:5;stroke-miterlimit:10;}
	.st45{fill-rule:evenodd;clip-rule:evenodd;fill:#000038;}
	.st46{clip-path:url(#SVGID_13_);}
	.st47{fill:#EEEEEE;}
	.st48{opacity:0.25;fill:#ED9A2E;}
	.st49{opacity:0.2;fill:#000038;}
	.st50{opacity:0.25;fill:#0071BC;}
	.st51{fill:#271832;}
	.st52{fill:#921E54;}
	.st53{fill:#1A7DBE;}
	.st54{fill:#167EBD;}
	.st55{fill:#FFFFFF;stroke:#274C8C;stroke-miterlimit:10;}
	.st56{fill:#274C8C;}
</style>
<g>
	<g>
		<path class="st0" d="M49.2,28.03v-0.05c0-5.12,3.91-9.13,9.23-9.13c3.59,0,5.89,1.5,7.45,3.64l-3.66,2.83
			c-1-1.23-2.16-2.06-3.84-2.06c-2.46,0-4.19,2.11-4.19,4.66v0.05c0,2.63,1.73,4.69,4.19,4.69c1.83,0,2.91-0.85,3.96-2.13L66,33.15
			c-1.65,2.28-3.89,3.96-7.75,3.96C53.23,37.11,49.2,33.27,49.2,28.03"/>
		<polyline class="st0" points="70.61,19.21 75.75,19.21 79.93,26 84.12,19.21 89.26,19.21 89.26,36.76 84.42,36.76 84.42,26.68 
			79.93,33.55 79.83,33.55 75.37,26.71 75.37,36.76 70.61,36.76 70.61,19.21 		"/>
		<polyline class="st0" points="94.89,19.21 100.03,19.21 104.22,26 108.4,19.21 113.54,19.21 113.54,36.76 108.7,36.76 
			108.7,26.68 104.22,33.55 104.12,33.55 99.65,26.71 99.65,36.76 94.89,36.76 94.89,19.21 		"/>
		<rect x="118.11" y="19.21" class="st0" width="4.86" height="17.55"/>
		<g>
			<path class="st51" d="M36.33,18.25c1.28,3.78-0.62,11.23-5.88,17.5c-6.07,7.21-14.81,12.28-19.15,9.87
				c0.14,0.26,0.31,0.51,0.5,0.73c0.59,0.43,1.2,0.82,1.83,1.17c4.04,1.23,12.04-2.66,18.06-9.82c5.26-6.25,7.46-13.17,6.66-17.32
				L36.33,18.25"/>
			<path class="st51" d="M14.56,13.82c-2.59,2.46-5.84,10.38-2.95,19.29c2.83,8.73,10.61,15.54,14.31,16.43
				c0.37,0.09,0.75,0.08,1.12,0c0,0,0.01,0,0.01,0c0.58-0.13,1.14-0.41,1.51-0.88c0,0,0.01-0.01,0.01-0.01
				c-3.97-0.75-12.05-8.01-14.85-16.67c-2.8-8.66,0.59-15.88,3.37-18.81c-0.01,0-0.01,0-0.01,0L14.56,13.82"/>
			<path class="st51" d="M40.27,38.39c0.36-0.8,0.42-1.29-0.04-2.03c-1.72-2.78-6.74-7.36-13.41-11.5
				c-7.07-4.39-13.87-6.96-16.94-7.04l-1.53,0.92l-0.1,0.47c-0.02,0.08-0.04,0.16-0.08,0.23c-0.32,0.57-0.79,1.4-1.08,1.89
				c0.42-0.45,1.23-0.85,1.72-0.85c3.58-0.16,10.32,1.88,16.98,6.02c6.66,4.14,11.36,9.2,12.8,12.48c0.24,0.86-0.48,1.56-0.48,1.56
				l1.59-1.31L39.73,39L40.27,38.39"/>
			<path class="st52" d="M7.09,21.33c-0.1,0.11-0.19,0.22-0.23,0.33C6.79,21.82,6.9,21.65,7.09,21.33"/>
			<path class="st53" d="M32.03,15.85c8.67,5.22,11.65,16.17,6.66,24.46l0.68,0.41c5.44-9.05,2.53-20.8-6.52-26.24
				C23.81,9.04,12.06,11.96,6.61,21l0.68,0.41C12.29,13.12,23.36,10.63,32.03,15.85"/>
			<path class="st54" d="M13.13,47.24c9.05,5.45,20.8,2.53,26.24-6.52l-0.68-0.41c-4.99,8.29-15.81,10.5-24.48,5.28
				C5.54,40.38,2.31,29.71,7.3,21.41L6.61,21C1.17,30.05,4.09,41.8,13.13,47.24"/>
			<path class="st54" d="M35.3,16.23c-0.2-0.17-0.41-0.33-0.61-0.49c-0.46-0.35-0.92-0.68-1.4-0.99
				c-4.53-2.21-13.38,0.98-19.63,8.41C7.4,30.6,5.93,39.69,8.89,43.77c0.38,0.42,0.79,0.82,1.21,1.21c0.19,0.18,0.39,0.35,0.59,0.52
				c0.36,0.3,0.72,0.58,1.09,0.85c-0.19-0.22-0.35-0.46-0.5-0.73c-1.99-3.73,1.16-11.91,7.23-19.12c6.07-7.21,12.99-11.02,17.01-9.7
				c0.28,0.09,0.55,0.21,0.8,0.36C36,16.84,35.66,16.53,35.3,16.23"/>
			<path class="st53" d="M34.77,27.27c-2.97-9.16-10.93-15.18-15.01-15.26c-0.53,0.09-1.05,0.2-1.58,0.34
				c-0.36,0.09-0.72,0.2-1.08,0.31c-0.38,0.12-0.76,0.26-1.12,0.41c0.35-0.05,0.72-0.01,1.1,0.1c3.29,0.96,10.15,6.95,12.95,15.6
				c2.8,8.66,0.64,17.16-1.47,19.87c-0.24,0.32-0.52,0.56-0.83,0.73c0.38-0.1,0.76-0.21,1.15-0.33c0.36-0.12,0.71-0.24,1.06-0.38
				c0.5-0.2,1-0.41,1.48-0.65C34.68,45.57,37.74,36.44,34.77,27.27"/>
			<path class="st53" d="M6.38,21.41c-0.11,0.18-0.21,0.37-0.3,0.55c-0.97,2.9,3.32,11.12,11.9,16.45
				c8.58,5.33,18.34,5.83,20.5,3.67c0.12-0.17,0.24-0.34,0.36-0.52c0.14-0.2,0.27-0.41,0.4-0.62c0.43-0.69,0.8-1.39,1.14-2.11
				c-3.9,1.54-12.33-1.65-18.99-5.79C14.72,28.91,7.72,21.9,8.14,18.82c-0.5,0.61-0.96,1.27-1.39,1.95
				C6.62,20.99,6.5,21.2,6.38,21.41"/>
		</g>
		<g>
			<path class="st0" d="M129.73,19.43h6.34c1.43,0,2.71,0.24,3.85,0.71c1.14,0.47,2.06,1.11,2.76,1.9c0.7,0.8,1.23,1.69,1.59,2.67
				c0.36,0.98,0.55,2.01,0.55,3.09c0,1.12-0.17,2.19-0.52,3.21c-0.35,1.02-0.87,1.95-1.55,2.78c-0.69,0.84-1.61,1.51-2.76,2
				c-1.15,0.5-2.46,0.74-3.92,0.74h-6.34V19.45V19.43z M140.99,32.45c1.12-1.31,1.68-2.87,1.68-4.68c0-1.73-0.57-3.21-1.72-4.44
				c-1.14-1.24-2.77-1.86-4.87-1.86h-4.18v12.94h4.18C138.23,34.42,139.87,33.76,140.99,32.45z"/>
			<path class="st0" d="M152.12,19.45h12.23v1.95h-10.1v5.35h9.67v1.98h-9.67v5.79h10.49v2.03h-12.63V19.45z"/>
			<path class="st0" d="M172.64,19.45l5.94,14.6l5.99-14.6h2.39l-7.19,17.14h-2.34l-7.21-17.14H172.64z"/>
		</g>
		<g>
			<path class="st0" d="M198.89,19.31l-8.7,17.64l-2.07-0.1l8.67-17.64L198.89,19.31z"/>
		</g>
		<path class="st0" d="M215.16,19.23c-4.18,0-8.26,0-12.34,0c0,1.3,0,2.5,0,3.84c2.14,0,4.19,0,6.49,0
			c-1.29,1.16-2.34,2.14-3.42,3.09c0.16,0.75,0.31,1.49,0.46,2.24c0.03,0.14,0.03,0.38,0.11,0.51c0.1,0.16,0.17,0.13,0.38,0.15
			c0.51,0.03,1.05-0.07,1.55-0.02c1.14,0.11,2.62,0.66,2.52,2.07c-0.04,0.6-0.43,1.22-1.01,1.46c-0.97,0.4-2.24,0.15-3.19-0.19
			c-0.89-0.32-1.45-0.91-2.18-1.47c-1.04,1.01-2.01,1.95-2.98,2.89c2.54,2.98,7.57,4.02,10.97,2.32c2.11-1.06,3.28-3.07,3.11-5.39
			c-0.16-2.34-1.59-3.36-3.76-4.34c-0.21-0.09-0.42-0.18-0.74-0.32l4.04-3.01L215.16,19.23z"/>
	</g>
	<g>
		<g>
			
				<ellipse transform="matrix(0.1621 -0.9868 0.9868 0.1621 -29.5682 157.9014)" class="st55" cx="78.19" cy="96.36" rx="26.2" ry="26.2"/>
			
				<ellipse transform="matrix(0.1615 -0.9869 0.9869 0.1615 -29.531 157.9667)" class="st56" cx="78.19" cy="96.36" rx="17.93" ry="17.93"/>
			<g>
				<path class="st0" d="M88.99,91.3c-0.21-0.54-0.63-1.02-1.14-1.37c-1.48-0.94-3.74-1.01-5.27-0.16
					c-0.83,0.43-1.38,1.27-1.55,2.13c-0.31,1.42-0.23,3.11,0.87,4.18c1.28,1.12,3.14,1.37,4.79,0.91c0.08-0.02,0.33-0.08,0.5-0.17
					l0.05-0.02c0.51-0.21,1-0.56,1.37-1.03C89.45,94.54,89.51,92.69,88.99,91.3z M86.3,94.49c-0.06,0.27-0.24,0.55-0.53,0.65
					c-0.46,0.2-1.07,0.15-1.49-0.09c-0.35-0.25-0.4-0.66-0.44-1.05c-0.03-0.77-0.09-1.59,0.13-2.3c0.17-0.44,0.64-0.55,1.06-0.58
					c0.44,0,0.88,0.07,1.15,0.43c0.17,0.26,0.16,0.59,0.19,0.9C86.36,93.08,86.41,93.84,86.3,94.49z"/>
				<path class="st0" d="M72.78,95.19c-0.38-0.02-0.8,0.01-1.16-0.03l0.01-3.94l0.02-0.03l1.13-0.01c0.01-0.64,0.02-1.32-0.01-1.91
					l-4.3-0.01l-0.71,0.01c-0.01,0.59-0.01,1.29,0,1.89c0.39,0.01,0.75,0,1.13,0.03v3.81l-0.01,0.16l-1.13,0.02
					c-0.02,0.63-0.02,1.23,0,1.85h5.03V95.19z"/>
				<path class="st0" d="M85.44,97.88c-0.48,0.68-1.08,1.35-1.74,1.86c-0.02,0.03-0.09,0.02-0.11-0.01
					c-0.29-0.18-0.59-0.32-0.87-0.5c0.37-0.44,0.72-0.87,0.99-1.36h-0.35c-0.28,0.42-0.58,0.85-0.96,1.22
					c-0.5-0.2-0.96-0.38-1.47-0.52l-0.06-0.04c0.08-0.23,0.23-0.44,0.27-0.66h-0.31l-0.31,0.61c-0.67-0.15-1.41-0.22-2.1-0.27
					c-0.03-0.1,0.01-0.25-0.03-0.34h-0.3c-0.02,0.14,0.03,0.24-0.03,0.35c-0.71,0.03-1.39,0.11-2.05,0.25l-0.31-0.6
					c-0.11,0-0.24-0.02-0.32,0.01l0.29,0.66l-0.03,0.03c-0.51,0.15-1.02,0.33-1.51,0.53l-0.05-0.02c-0.32-0.35-0.63-0.73-0.88-1.11
					c-0.06-0.19-0.29-0.08-0.41-0.1c0.27,0.49,0.64,0.93,1,1.38c-0.31,0.18-0.61,0.38-0.94,0.53c-0.68-0.52-1.32-1.19-1.8-1.89
					c-0.14-0.02-0.23-0.01-0.37,0c0.82,1.28,2.1,2.4,3.43,3.06c0,0,0-0.01,0.01-0.01c0.01,0,0.03,0.02,0.01,0.03
					c0.9,0.44,1.86,0.75,2.88,0.89c3.5,0.46,6.85-1.03,8.78-3.97C85.71,97.87,85.56,97.87,85.44,97.88z M80.69,98.89l0.03-0.02
					c0.49,0.11,0.96,0.27,1.39,0.48c-0.37,0.41-0.83,0.77-1.27,1.08c-0.26,0.16-0.53,0.33-0.8,0.46l-0.49-0.21l0.03-0.08
					C80,100.04,80.37,99.48,80.69,98.89z M78.44,98.55c0.65,0.01,1.3,0.08,1.91,0.22l0.01,0.03c-0.32,0.6-0.72,1.19-1.15,1.74
					c-0.19,0.02-0.38-0.05-0.57-0.07l-0.19-0.02C78.42,99.79,78.4,99.21,78.44,98.55z M76.24,98.75c0.59-0.11,1.21-0.2,1.85-0.2
					l0.01,1.9c-0.24,0.05-0.5,0.05-0.73,0.11c-0.47-0.55-0.86-1.15-1.19-1.76L76.24,98.75z M74.4,99.36
					c0.45-0.21,0.91-0.37,1.39-0.49l0.05,0.01c0.33,0.62,0.74,1.2,1.15,1.78c-0.16,0.09-0.35,0.14-0.51,0.24
					c-0.75-0.37-1.47-0.89-2.08-1.5V99.36z M75.87,101.27c-0.96-0.25-1.85-0.67-2.67-1.26v-0.03c0.27-0.17,0.55-0.35,0.84-0.47
					c0.65,0.64,1.32,1.12,2.05,1.58C76.04,101.16,75.95,101.23,75.87,101.27z M80.1,101.42c-1.21,0.26-2.56,0.27-3.76-0.02
					c-0.02-0.06,0.06-0.07,0.09-0.1c1.06-0.68,2.71-0.68,3.75,0.05C80.22,101.42,80.13,101.4,80.1,101.42z M81.2,101.11l-0.54,0.17
					c-0.09-0.04-0.17-0.11-0.25-0.18l0.02-0.03c0.73-0.43,1.39-0.94,2.02-1.56c0.31,0.12,0.6,0.29,0.88,0.48
					C82.69,100.49,81.95,100.83,81.2,101.11z"/>
				<path class="st0" d="M71.03,88.4c0.27-0.38,0.58-0.75,0.92-1.11c0.3-0.28,0.57-0.55,0.89-0.75c0.3,0.19,0.63,0.35,0.91,0.53
					c-0.35,0.44-0.72,0.87-0.98,1.34c0.08,0.03,0.23,0.02,0.34,0c0.28-0.41,0.59-0.83,0.96-1.2c0.49,0.18,0.97,0.37,1.47,0.5
					l0.04,0.04l-0.28,0.65c0.13,0.02,0.21,0.01,0.33,0c0.1-0.19,0.18-0.4,0.3-0.59c0.66,0.15,1.36,0.22,2.07,0.25
					c0.09,0.08,0.02,0.25,0.06,0.35h0.31c0.03-0.11-0.01-0.24,0.03-0.33c0.66-0.03,1.36-0.1,2-0.26l0.06,0.01l0.31,0.58
					c0.1,0,0.24,0.02,0.32-0.02l-0.29-0.65l0.02-0.02c0.52-0.14,1.02-0.34,1.52-0.54c0.35,0.37,0.68,0.81,0.98,1.23
					c0.13,0,0.25,0.01,0.34-0.02c-0.14-0.25-0.31-0.49-0.49-0.71c-0.15-0.21-0.31-0.4-0.5-0.6v-0.06l0.8-0.46l0.12-0.04
					c0.7,0.53,1.31,1.16,1.8,1.87c0.14,0,0.25,0.05,0.37-0.01c-1.53-2.29-4.05-3.76-6.78-3.97l-0.01,0.02l-0.02-0.02
					c-0.31-0.03-0.69-0.05-1.02-0.01c-0.13-0.01-0.27,0-0.42,0.01c-2.74,0.21-5.26,1.61-6.83,4C70.78,88.4,70.92,88.45,71.03,88.4z
					 M75.77,87.42l-0.05,0.01c-0.47-0.12-0.92-0.27-1.36-0.46l0.02-0.07c0.63-0.59,1.29-1.09,2.02-1.47
					c0.17,0.07,0.34,0.12,0.51,0.2l-0.03,0.09C76.45,86.26,76.11,86.85,75.77,87.42z M78.04,87.72c-0.32,0.04-0.6-0.01-0.92-0.03
					c-0.31-0.04-0.7-0.08-1-0.18c0.33-0.61,0.72-1.21,1.19-1.76l0.73,0.1C78.06,86.43,78.04,87.1,78.04,87.72z M78.39,87.73
					c-0.02-0.6-0.01-1.26,0-1.87c0.23-0.03,0.48-0.07,0.71-0.1c0.44,0.56,0.88,1.13,1.18,1.75C79.66,87.65,79.03,87.73,78.39,87.73z
					 M82.03,86.95c-0.45,0.19-0.9,0.37-1.39,0.47c-0.35-0.59-0.74-1.19-1.18-1.76c0.16-0.09,0.35-0.15,0.53-0.24
					c0.74,0.37,1.46,0.9,2.06,1.5L82.03,86.95z M80.57,85.03c0.96,0.25,1.86,0.67,2.68,1.26l-0.02,0.04l-0.79,0.44h-0.06
					c-0.6-0.6-1.31-1.13-2.03-1.55C80.38,85.14,80.49,85.09,80.57,85.03z M80.12,84.92v0.02c-0.99,0.72-2.6,0.78-3.65,0.12
					c-0.06-0.04-0.17-0.07-0.18-0.15C77.49,84.64,78.92,84.62,80.12,84.92z M73.16,86.31c0.72-0.53,1.52-0.92,2.36-1.19
					c0.03-0.03,0.06-0.07,0.1-0.07v0.02c0.09,0.02,0.16-0.08,0.24-0.01c0.07,0.06,0.15,0.1,0.21,0.16c-0.71,0.44-1.4,0.95-2.04,1.58
					c-0.31-0.11-0.59-0.28-0.87-0.47V86.31z"/>
				<path class="st0" d="M78.05,95.27c-1.07,0.29-2.24,0.07-3.01-0.74c-0.09-0.11-0.15-0.25-0.24-0.36l-1.54,0.01
					c-0.02,0.91-0.03,1.95,0,2.85l1.71-0.01l0.02-0.54c0.19,0.09,0.39,0.2,0.58,0.3c1.19,0.49,2.71,0.61,3.89,0
					c0.86-0.47,1.31-1.38,1.19-2.35c-0.12-0.95-1.04-1.82-1.96-2.05l-2.76-0.8l-0.2-0.1c-0.09-0.08-0.15-0.18-0.13-0.3
					c0.22-0.37,0.72-0.26,1.1-0.25c0.8,0.11,1.62,0.38,2.09,1.11c0.5,0,1.08,0.01,1.63-0.01c0.02-0.92-0.01-1.73-0.02-2.66
					c-0.51-0.01-1.14-0.01-1.65,0.01c-0.02,0.13,0.02,0.32-0.03,0.46l-0.52-0.28c-1.26-0.53-3.01-0.58-4.15,0.24
					c-0.74,0.54-0.97,1.5-0.78,2.35c0.15,0.81,0.92,1.4,1.67,1.68c1.02,0.36,2.08,0.62,3.1,0.96c0.1,0.05,0.24,0.15,0.22,0.27
					C78.23,95.17,78.13,95.23,78.05,95.27z"/>
			</g>
			<g>
				<path class="st0" d="M69.17,106.71c0,0.69-0.38,1.06-1.18,1.06c-0.76,0-1.15-0.37-1.15-1.03v-0.1h0.73v0.15
					c0,0.29,0.15,0.4,0.4,0.4c0.27,0,0.43-0.11,0.43-0.5v-0.74h-0.01c-0.13,0.23-0.36,0.36-0.7,0.36c-0.57,0-0.86-0.33-0.86-0.93
					v-0.75c0-0.65,0.41-1.03,1.17-1.03c0.76,0,1.17,0.37,1.17,1.03V106.71z M68.39,105.31v-0.73c0-0.29-0.15-0.4-0.4-0.4
					c-0.25,0-0.4,0.1-0.4,0.4v0.73c0,0.29,0.15,0.4,0.4,0.4C68.24,105.71,68.39,105.6,68.39,105.31z"/>
				<path class="st0" d="M69.61,104.62c0-0.65,0.41-1.03,1.17-1.03c0.76,0,1.17,0.37,1.17,1.03v2.12c0,0.65-0.41,1.03-1.17,1.03
					c-0.76,0-1.17-0.37-1.17-1.03V104.62z M70.39,106.78c0,0.29,0.15,0.4,0.4,0.4c0.25,0,0.4-0.11,0.4-0.4v-2.2
					c0-0.29-0.15-0.4-0.4-0.4c-0.25,0-0.4,0.11-0.4,0.4V106.78z"/>
				<path class="st0" d="M72.4,104.62c0-0.65,0.41-1.03,1.17-1.03c0.76,0,1.17,0.37,1.17,1.03v2.12c0,0.65-0.41,1.03-1.17,1.03
					c-0.76,0-1.17-0.37-1.17-1.03V104.62z M73.17,106.78c0,0.29,0.15,0.4,0.4,0.4c0.25,0,0.4-0.11,0.4-0.4v-2.2
					c0-0.29-0.15-0.4-0.4-0.4c-0.25,0-0.4,0.11-0.4,0.4V106.78z"/>
				<path class="st0" d="M75.72,104.15c0.6,0,0.73-0.24,0.85-0.51h0.52v4.08h-0.77v-3.11h-0.6V104.15z"/>
				<path class="st0" d="M78.77,104.88v0.62h-0.74v-0.62H78.77z M78.77,107.1v0.62h-0.74v-0.62H78.77z"/>
				<path class="st0" d="M80.47,104.17c-0.25,0-0.4,0.11-0.4,0.4v0.44h-0.73v-0.4c0-0.65,0.39-1.03,1.15-1.03s1.15,0.37,1.15,1.03
					c0,0.54-0.24,0.98-0.96,1.62c-0.46,0.41-0.58,0.6-0.58,0.82c0,0.03,0,0.06,0.01,0.09h1.46v0.58h-2.23v-0.5
					c0-0.45,0.2-0.8,0.77-1.3c0.59-0.52,0.76-0.84,0.76-1.28C80.87,104.27,80.71,104.17,80.47,104.17z"/>
				<path class="st0" d="M82.05,104.62c0-0.65,0.41-1.03,1.17-1.03c0.76,0,1.17,0.37,1.17,1.03v2.12c0,0.65-0.41,1.03-1.17,1.03
					c-0.76,0-1.17-0.37-1.17-1.03V104.62z M82.83,106.78c0,0.29,0.15,0.4,0.4,0.4c0.25,0,0.4-0.11,0.4-0.4v-2.2
					c0-0.29-0.15-0.4-0.4-0.4c-0.25,0-0.4,0.11-0.4,0.4V106.78z"/>
				<path class="st0" d="M85.38,104.15c0.6,0,0.73-0.24,0.85-0.51h0.52v4.08h-0.77v-3.11h-0.6V104.15z"/>
				<path class="st0" d="M88.38,106.4v0.38c0,0.29,0.15,0.4,0.4,0.4s0.4-0.1,0.4-0.4v-0.9c0-0.29-0.15-0.4-0.4-0.4
					s-0.4,0.11-0.4,0.4v0.12h-0.73l0.14-2.37h2.04v0.58h-1.35l-0.06,0.97h0.01c0.14-0.19,0.36-0.3,0.67-0.3
					c0.57,0,0.86,0.33,0.86,0.93v0.91c0,0.65-0.39,1.03-1.15,1.03c-0.76,0-1.15-0.37-1.15-1.03v-0.34H88.38z"/>
			</g>
			<g>
				<path class="st56" d="M64.36,80.3l0.48,0.48c0.58,0.58,0.55,1.26-0.12,1.93c-0.68,0.67-1.36,0.68-1.93,0.1l-1.87-1.89
					c-0.58-0.58-0.55-1.26,0.12-1.93c0.68-0.67,1.36-0.68,1.93-0.1l0.35,0.35l-0.65,0.65l-0.39-0.39c-0.26-0.26-0.49-0.22-0.71-0.01
					c-0.22,0.22-0.26,0.45,0,0.71l1.95,1.97c0.26,0.26,0.49,0.22,0.71,0c0.22-0.22,0.26-0.45,0.01-0.71l-0.51-0.52L64.36,80.3z"/>
				<path class="st56" d="M66.24,77.64l1.13-0.7l0.39,0.62l-1.13,0.7l0.79,1.27l1.42-0.88l0.39,0.62l-2.25,1.4l-2.7-4.35l2.25-1.4
					l0.39,0.62l-1.42,0.88L66.24,77.64z"/>
				<path class="st56" d="M72.61,77.94c-0.09-0.11-0.15-0.17-0.29-0.57l-0.26-0.76c-0.15-0.45-0.39-0.56-0.81-0.41l-0.32,0.11
					l0.67,1.98l-0.92,0.31l-1.64-4.85l1.39-0.47c0.95-0.32,1.49-0.09,1.74,0.66l0.13,0.38c0.17,0.5,0.08,0.88-0.27,1.18l0,0.01
					c0.51,0,0.79,0.31,0.96,0.82l0.25,0.75c0.08,0.24,0.15,0.41,0.3,0.56L72.61,77.94z M70.2,74.11l0.5,1.49l0.36-0.12
					c0.34-0.12,0.51-0.31,0.38-0.7l-0.16-0.48c-0.12-0.35-0.31-0.45-0.64-0.34L70.2,74.11z"/>
				<path class="st56" d="M74.28,72.27l2.99-0.29l0.07,0.73l-1.01,0.1l0.43,4.37l-0.97,0.1l-0.43-4.37l-1.01,0.1L74.28,72.27z"/>
				<path class="st56" d="M79.78,72.05l0.97,0.08l-0.43,5.11l-0.97-0.08L79.78,72.05z"/>
				<path class="st56" d="M83.86,75.01l1.21,0.33l-0.19,0.71l-1.21-0.33l-0.56,2.04l-0.94-0.26l1.36-4.94L86,73.24l-0.19,0.71
					l-1.54-0.42L83.86,75.01z"/>
				<path class="st56" d="M88.37,74.22l0.87,0.42l-2.24,4.61l-0.87-0.42L88.37,74.22z"/>
				<path class="st56" d="M91.17,78.35l1.07,0.79l-0.44,0.59l-1.07-0.79l-0.89,1.2l1.35,1l-0.44,0.59l-2.12-1.58l3.06-4.11
					l2.12,1.58l-0.44,0.59l-1.35-1L91.17,78.35z"/>
				<path class="st56" d="M95.84,79.51l0.99,1.17c0.63,0.74,0.6,1.39-0.03,1.92l-1.98,1.68c-0.63,0.53-1.27,0.46-1.9-0.28
					l-0.99-1.17L95.84,79.51z M95.91,80.72l-2.79,2.37l0.35,0.42c0.2,0.24,0.42,0.29,0.7,0.05l2.03-1.72
					c0.28-0.24,0.26-0.46,0.06-0.7L95.91,80.72z"/>
			</g>
			<g>
				<path class="st56" d="M63.36,113.18l-0.54,0.47c-0.65,0.56-1.37,0.49-2.02-0.27c-0.65-0.76-0.62-1.47,0.03-2.04l2.12-1.83
					c0.65-0.56,1.37-0.49,2.02,0.27c0.65,0.76,0.62,1.47-0.03,2.04l-0.4,0.34l-0.63-0.73l0.44-0.38c0.29-0.25,0.27-0.5,0.06-0.75
					c-0.21-0.25-0.46-0.31-0.75-0.05l-2.2,1.9c-0.29,0.25-0.26,0.5-0.05,0.74c0.21,0.25,0.45,0.31,0.74,0.06l0.58-0.5L63.36,113.18z
					"/>
				<path class="st56" d="M66.49,113.2c0.48-0.72,1.21-0.83,2.04-0.27c0.83,0.55,1.02,1.27,0.54,1.99l-1.55,2.33
					c-0.48,0.72-1.21,0.83-2.04,0.27c-0.83-0.55-1.02-1.27-0.54-1.99L66.49,113.2z M65.76,116.14c-0.21,0.32-0.12,0.56,0.15,0.74
					c0.27,0.18,0.52,0.17,0.73-0.15l1.61-2.42c0.21-0.32,0.12-0.56-0.15-0.74c-0.27-0.18-0.52-0.17-0.73,0.15L65.76,116.14z"/>
				<path class="st56" d="M72.48,118.95l0.02,0l1.69-3.5l1.37,0.38l-1.44,5.19l-0.93-0.26l1.03-3.72l-0.02,0l-1.7,3.54l-0.93-0.26
					l0.3-3.87l-0.02,0l-1.02,3.67l-0.86-0.24l1.44-5.19l1.37,0.38L72.48,118.95z"/>
				<path class="st56" d="M80.55,117.15l0.03,0.7c0.03,0.86-0.45,1.35-1.47,1.39l-0.48,0.02l0.08,2.02l-1.02,0.04l-0.2-5.39
					l1.5-0.06C80,115.84,80.52,116.29,80.55,117.15z M78.53,116.66l0.07,1.82l0.48-0.02c0.32-0.01,0.5-0.14,0.48-0.53l-0.03-0.81
					c-0.01-0.38-0.2-0.5-0.52-0.49L78.53,116.66z"/>
				<path class="st56" d="M86.8,119.69L85.81,120l-0.46-0.88l-1.2,0.38l0.13,0.99l-0.89,0.28l-0.63-5.45l1.43-0.45L86.8,119.69z
					 M84.06,118.76l0.94-0.3l-1.28-2.45l-0.02,0.01L84.06,118.76z"/>
				<path class="st56" d="M88.26,114.51l-0.02,0.01l2.19,3.23l-0.76,0.51l-3.02-4.47l1.06-0.72l2.66,2.1l0.02-0.01l-1.81-2.67
					l0.75-0.51l3.02,4.47l-0.87,0.59L88.26,114.51z"/>
				<path class="st56" d="M94.13,112.26l-3.6-1.31l0.68-0.82l2.38,0.98l0.01-0.01l-1.4-2.16l0.62-0.75l1.95,3.3l1.37,1.14
					l-0.65,0.79L94.13,112.26z"/>
			</g>
		</g>
		<g>
			
				<ellipse transform="matrix(0.1621 -0.9868 0.9868 0.1621 23.3354 220.2023)" class="st55" cx="141.33" cy="96.36" rx="26.2" ry="26.2"/>
			
				<ellipse transform="matrix(0.1615 -0.9869 0.9869 0.1615 23.4104 220.2737)" class="st56" cx="141.33" cy="96.36" rx="17.93" ry="17.93"/>
			<g>
				<path class="st0" d="M152.13,91.3c-0.21-0.54-0.63-1.02-1.14-1.37c-1.48-0.94-3.74-1.01-5.27-0.16
					c-0.83,0.43-1.38,1.27-1.55,2.13c-0.31,1.42-0.23,3.11,0.87,4.18c1.28,1.12,3.14,1.37,4.79,0.91c0.08-0.02,0.33-0.08,0.5-0.17
					l0.05-0.02c0.51-0.21,1-0.56,1.37-1.03C152.58,94.54,152.64,92.69,152.13,91.3z M149.43,94.49c-0.06,0.27-0.24,0.55-0.53,0.65
					c-0.46,0.2-1.07,0.15-1.49-0.09c-0.35-0.25-0.4-0.66-0.44-1.05c-0.03-0.77-0.09-1.59,0.13-2.3c0.17-0.44,0.64-0.55,1.06-0.58
					c0.44,0,0.88,0.07,1.15,0.43c0.17,0.26,0.16,0.59,0.19,0.9C149.49,93.08,149.55,93.84,149.43,94.49z"/>
				<path class="st0" d="M135.91,95.19c-0.38-0.02-0.8,0.01-1.16-0.03l0.01-3.94l0.02-0.03l1.13-0.01c0.01-0.64,0.02-1.32-0.01-1.91
					l-4.3-0.01l-0.71,0.01c-0.01,0.59-0.01,1.29,0,1.89c0.39,0.01,0.75,0,1.13,0.03v3.81l-0.01,0.16l-1.13,0.02
					c-0.02,0.63-0.02,1.23,0,1.85h5.03V95.19z"/>
				<path class="st0" d="M148.58,97.88c-0.48,0.68-1.08,1.35-1.74,1.86c-0.02,0.03-0.09,0.02-0.11-0.01
					c-0.29-0.18-0.59-0.32-0.87-0.5c0.37-0.44,0.72-0.87,0.99-1.36h-0.35c-0.28,0.42-0.58,0.85-0.96,1.22
					c-0.5-0.2-0.96-0.38-1.47-0.52L144,98.53c0.08-0.23,0.23-0.44,0.27-0.66h-0.31l-0.31,0.61c-0.67-0.15-1.41-0.22-2.1-0.27
					c-0.03-0.1,0.01-0.25-0.03-0.34h-0.3c-0.02,0.14,0.03,0.24-0.03,0.35c-0.71,0.03-1.39,0.11-2.05,0.25l-0.31-0.6
					c-0.11,0-0.24-0.02-0.32,0.01l0.29,0.66l-0.03,0.03c-0.51,0.15-1.02,0.33-1.51,0.53l-0.05-0.02c-0.32-0.35-0.63-0.73-0.88-1.11
					c-0.06-0.19-0.29-0.08-0.41-0.1c0.27,0.49,0.64,0.93,1,1.38c-0.31,0.18-0.61,0.38-0.94,0.53c-0.68-0.52-1.32-1.19-1.8-1.89
					c-0.14-0.02-0.23-0.01-0.37,0c0.82,1.28,2.1,2.4,3.43,3.06c0,0,0-0.01,0.01-0.01c0.01,0,0.03,0.02,0.01,0.03
					c0.9,0.44,1.86,0.75,2.88,0.89c3.5,0.46,6.85-1.03,8.78-3.97C148.84,97.87,148.69,97.87,148.58,97.88z M143.82,98.89l0.03-0.02
					c0.49,0.11,0.96,0.27,1.39,0.48c-0.37,0.41-0.83,0.77-1.27,1.08c-0.26,0.16-0.53,0.33-0.8,0.46l-0.49-0.21l0.03-0.08
					C143.14,100.04,143.5,99.48,143.82,98.89z M141.57,98.55c0.65,0.01,1.3,0.08,1.91,0.22l0.01,0.03c-0.32,0.6-0.72,1.19-1.15,1.74
					c-0.19,0.02-0.38-0.05-0.57-0.07l-0.19-0.02C141.55,99.79,141.54,99.21,141.57,98.55z M139.37,98.75
					c0.59-0.11,1.21-0.2,1.85-0.2l0.01,1.9c-0.24,0.05-0.5,0.05-0.73,0.11c-0.47-0.55-0.86-1.15-1.19-1.76L139.37,98.75z
					 M137.54,99.36c0.45-0.21,0.91-0.37,1.39-0.49l0.05,0.01c0.33,0.62,0.74,1.2,1.15,1.78c-0.16,0.09-0.35,0.14-0.51,0.24
					c-0.75-0.37-1.47-0.89-2.08-1.5V99.36z M139.01,101.27c-0.96-0.25-1.85-0.67-2.67-1.26v-0.03c0.27-0.17,0.55-0.35,0.84-0.47
					c0.65,0.64,1.32,1.12,2.05,1.58C139.18,101.16,139.09,101.23,139.01,101.27z M143.24,101.42c-1.21,0.26-2.56,0.27-3.76-0.02
					c-0.02-0.06,0.06-0.07,0.09-0.1c1.06-0.68,2.71-0.68,3.75,0.05C143.35,101.42,143.26,101.4,143.24,101.42z M144.33,101.11
					l-0.54,0.17c-0.09-0.04-0.17-0.11-0.25-0.18l0.02-0.03c0.73-0.43,1.39-0.94,2.02-1.56c0.31,0.12,0.6,0.29,0.88,0.48
					C145.83,100.49,145.09,100.83,144.33,101.11z"/>
				<path class="st0" d="M134.17,88.4c0.27-0.38,0.58-0.75,0.92-1.11c0.3-0.28,0.57-0.55,0.89-0.75c0.3,0.19,0.63,0.35,0.91,0.53
					c-0.35,0.44-0.72,0.87-0.98,1.34c0.08,0.03,0.23,0.02,0.34,0c0.28-0.41,0.59-0.83,0.96-1.2c0.49,0.18,0.97,0.37,1.47,0.5
					l0.04,0.04l-0.28,0.65c0.13,0.02,0.21,0.01,0.33,0c0.1-0.19,0.18-0.4,0.3-0.59c0.66,0.15,1.36,0.22,2.07,0.25
					c0.09,0.08,0.02,0.25,0.06,0.35h0.31c0.03-0.11-0.01-0.24,0.03-0.33c0.66-0.03,1.36-0.1,2-0.26l0.06,0.01l0.31,0.58
					c0.1,0,0.24,0.02,0.32-0.02l-0.29-0.65l0.02-0.02c0.52-0.14,1.02-0.34,1.52-0.54c0.35,0.37,0.68,0.81,0.98,1.23
					c0.13,0,0.25,0.01,0.34-0.02c-0.14-0.25-0.31-0.49-0.49-0.71c-0.15-0.21-0.31-0.4-0.5-0.6v-0.06l0.8-0.46l0.12-0.04
					c0.7,0.53,1.31,1.16,1.8,1.87c0.14,0,0.25,0.05,0.37-0.01c-1.53-2.29-4.05-3.76-6.78-3.97l-0.01,0.02l-0.02-0.02
					c-0.31-0.03-0.69-0.05-1.02-0.01c-0.13-0.01-0.27,0-0.42,0.01c-2.74,0.21-5.26,1.61-6.83,4
					C133.92,88.4,134.06,88.45,134.17,88.4z M138.9,87.42l-0.05,0.01c-0.47-0.12-0.92-0.27-1.36-0.46l0.02-0.07
					c0.63-0.59,1.29-1.09,2.02-1.47c0.17,0.07,0.34,0.12,0.51,0.2l-0.03,0.09C139.59,86.26,139.25,86.85,138.9,87.42z M141.17,87.72
					c-0.32,0.04-0.6-0.01-0.92-0.03c-0.31-0.04-0.7-0.08-1-0.18c0.33-0.61,0.72-1.21,1.19-1.76l0.73,0.1
					C141.2,86.43,141.17,87.1,141.17,87.72z M141.53,87.73c-0.02-0.6-0.01-1.26,0-1.87c0.23-0.03,0.48-0.07,0.71-0.1
					c0.44,0.56,0.88,1.13,1.18,1.75C142.79,87.65,142.17,87.73,141.53,87.73z M145.17,86.95c-0.45,0.19-0.9,0.37-1.39,0.47
					c-0.35-0.59-0.74-1.19-1.18-1.76c0.16-0.09,0.35-0.15,0.53-0.24c0.74,0.37,1.46,0.9,2.06,1.5L145.17,86.95z M143.71,85.03
					c0.96,0.25,1.86,0.67,2.68,1.26l-0.02,0.04l-0.79,0.44h-0.06c-0.6-0.6-1.31-1.13-2.03-1.55
					C143.51,85.14,143.63,85.09,143.71,85.03z M143.25,84.92v0.02c-0.99,0.72-2.6,0.78-3.65,0.12c-0.06-0.04-0.17-0.07-0.18-0.15
					C140.63,84.64,142.05,84.62,143.25,84.92z M136.29,86.31c0.72-0.53,1.52-0.92,2.36-1.19c0.03-0.03,0.06-0.07,0.1-0.07v0.02
					c0.09,0.02,0.16-0.08,0.24-0.01c0.07,0.06,0.15,0.1,0.21,0.16c-0.71,0.44-1.4,0.95-2.04,1.58c-0.31-0.11-0.59-0.28-0.87-0.47
					V86.31z"/>
				<path class="st0" d="M141.19,95.27c-1.07,0.29-2.24,0.07-3.01-0.74c-0.09-0.11-0.15-0.25-0.24-0.36l-1.54,0.01
					c-0.02,0.91-0.03,1.95,0,2.85l1.71-0.01l0.02-0.54c0.19,0.09,0.39,0.2,0.58,0.3c1.19,0.49,2.71,0.61,3.89,0
					c0.86-0.47,1.31-1.38,1.19-2.35c-0.12-0.95-1.04-1.82-1.96-2.05l-2.76-0.8l-0.2-0.1c-0.09-0.08-0.15-0.18-0.13-0.3
					c0.22-0.37,0.72-0.26,1.1-0.25c0.8,0.11,1.62,0.38,2.09,1.11c0.5,0,1.08,0.01,1.63-0.01c0.02-0.92-0.01-1.73-0.02-2.66
					c-0.51-0.01-1.14-0.01-1.65,0.01c-0.02,0.13,0.02,0.32-0.03,0.46l-0.52-0.28c-1.26-0.53-3.01-0.58-4.15,0.24
					c-0.74,0.54-0.97,1.5-0.78,2.35c0.15,0.81,0.92,1.4,1.67,1.68c1.02,0.36,2.08,0.62,3.1,0.96c0.1,0.05,0.24,0.15,0.22,0.27
					C141.37,95.17,141.27,95.23,141.19,95.27z"/>
			</g>
			<g>
				<path class="st56" d="M127.5,80.3l0.48,0.48c0.58,0.58,0.55,1.26-0.12,1.93c-0.68,0.67-1.36,0.68-1.93,0.1l-1.87-1.89
					c-0.58-0.58-0.55-1.26,0.12-1.93c0.68-0.67,1.36-0.68,1.93-0.1l0.35,0.35l-0.65,0.65l-0.39-0.39c-0.26-0.26-0.49-0.22-0.71-0.01
					c-0.22,0.22-0.26,0.45,0,0.71l1.95,1.97c0.26,0.26,0.49,0.22,0.71,0c0.22-0.22,0.26-0.45,0.01-0.71l-0.51-0.52L127.5,80.3z"/>
				<path class="st56" d="M129.38,77.64l1.13-0.7l0.39,0.62l-1.13,0.7l0.79,1.27l1.42-0.88l0.39,0.62l-2.25,1.4l-2.7-4.35l2.25-1.4
					l0.39,0.62l-1.42,0.88L129.38,77.64z"/>
				<path class="st56" d="M135.74,77.94c-0.09-0.11-0.15-0.17-0.28-0.57l-0.26-0.76c-0.15-0.45-0.39-0.56-0.81-0.41l-0.32,0.11
					l0.67,1.98l-0.92,0.31l-1.64-4.85l1.39-0.47c0.95-0.32,1.49-0.09,1.74,0.66l0.13,0.38c0.17,0.5,0.08,0.88-0.27,1.18l0,0.01
					c0.51,0,0.79,0.31,0.96,0.82l0.25,0.75c0.08,0.24,0.15,0.41,0.3,0.56L135.74,77.94z M133.34,74.11l0.5,1.49l0.36-0.12
					c0.34-0.12,0.51-0.31,0.38-0.7l-0.16-0.48c-0.12-0.35-0.31-0.45-0.64-0.34L133.34,74.11z"/>
				<path class="st56" d="M137.42,72.27l2.99-0.29l0.07,0.73l-1.01,0.1l0.43,4.37l-0.97,0.1l-0.43-4.37l-1.01,0.1L137.42,72.27z"/>
				<path class="st56" d="M142.92,72.05l0.97,0.08l-0.43,5.11l-0.97-0.08L142.92,72.05z"/>
				<path class="st56" d="M146.99,75.01l1.21,0.33l-0.19,0.71l-1.21-0.33l-0.56,2.04l-0.94-0.26l1.36-4.94l2.48,0.68l-0.19,0.71
					l-1.54-0.42L146.99,75.01z"/>
				<path class="st56" d="M151.51,74.22l0.87,0.42l-2.24,4.61l-0.87-0.42L151.51,74.22z"/>
				<path class="st56" d="M154.31,78.35l1.07,0.79l-0.44,0.59l-1.07-0.79l-0.89,1.2l1.35,1l-0.44,0.59l-2.12-1.58l3.06-4.11
					l2.12,1.58l-0.44,0.59l-1.35-1L154.31,78.35z"/>
				<path class="st56" d="M158.98,79.51l0.99,1.17c0.63,0.74,0.6,1.39-0.03,1.92l-1.98,1.68c-0.63,0.53-1.27,0.46-1.9-0.28
					l-0.99-1.17L158.98,79.51z M159.05,80.72l-2.79,2.37l0.35,0.42c0.2,0.24,0.42,0.29,0.7,0.05l2.03-1.72
					c0.28-0.24,0.26-0.46,0.06-0.7L159.05,80.72z"/>
			</g>
			<g>
				<path class="st56" d="M126.49,113.18l-0.54,0.47c-0.65,0.56-1.37,0.49-2.02-0.27c-0.65-0.76-0.62-1.47,0.03-2.04l2.12-1.83
					c0.65-0.56,1.37-0.49,2.02,0.27c0.65,0.76,0.62,1.47-0.03,2.04l-0.4,0.34l-0.63-0.73l0.44-0.38c0.29-0.25,0.27-0.5,0.06-0.75
					c-0.21-0.25-0.46-0.31-0.75-0.05l-2.2,1.9c-0.29,0.25-0.26,0.5-0.05,0.74c0.21,0.25,0.45,0.31,0.74,0.06l0.58-0.5L126.49,113.18
					z"/>
				<path class="st56" d="M129.63,113.2c0.48-0.72,1.21-0.83,2.04-0.27c0.83,0.55,1.02,1.27,0.54,1.99l-1.55,2.33
					c-0.48,0.72-1.21,0.83-2.04,0.27c-0.83-0.55-1.02-1.27-0.54-1.99L129.63,113.2z M128.9,116.14c-0.21,0.32-0.12,0.56,0.15,0.74
					c0.27,0.18,0.52,0.17,0.73-0.15l1.61-2.42c0.21-0.32,0.12-0.56-0.15-0.74c-0.27-0.18-0.52-0.17-0.73,0.15L128.9,116.14z"/>
				<path class="st56" d="M135.62,118.95l0.02,0l1.69-3.5l1.37,0.38l-1.44,5.19l-0.93-0.26l1.03-3.72l-0.02,0l-1.7,3.54l-0.93-0.26
					l0.3-3.87l-0.02,0l-1.02,3.67l-0.86-0.24l1.44-5.19l1.37,0.38L135.62,118.95z"/>
				<path class="st56" d="M143.69,117.15l0.03,0.7c0.03,0.86-0.45,1.35-1.47,1.39l-0.48,0.02l0.08,2.02l-1.02,0.04l-0.2-5.39
					l1.5-0.06C143.14,115.84,143.66,116.29,143.69,117.15z M141.66,116.66l0.07,1.82l0.48-0.02c0.32-0.01,0.5-0.14,0.48-0.53
					l-0.03-0.81c-0.01-0.38-0.2-0.5-0.52-0.49L141.66,116.66z"/>
				<path class="st56" d="M149.93,119.69l-0.98,0.31l-0.46-0.88l-1.2,0.38l0.13,0.99l-0.89,0.28l-0.63-5.45l1.43-0.45L149.93,119.69
					z M147.19,118.76l0.94-0.3l-1.28-2.45l-0.02,0.01L147.19,118.76z"/>
				<path class="st56" d="M151.4,114.51l-0.02,0.01l2.19,3.23l-0.76,0.51l-3.02-4.47l1.06-0.72l2.66,2.1l0.02-0.01l-1.81-2.67
					l0.75-0.51l3.02,4.47l-0.87,0.59L151.4,114.51z"/>
				<path class="st56" d="M157.26,112.26l-3.6-1.31l0.68-0.82l2.38,0.98l0.01-0.01l-1.4-2.16l0.62-0.75l1.95,3.3l1.37,1.14
					l-0.65,0.79L157.26,112.26z"/>
			</g>
			<g>
				<path class="st0" d="M135.77,108.76h-3.64v-0.68l1.73-1.8c0.25-0.28,0.43-0.51,0.53-0.7c0.11-0.19,0.16-0.37,0.16-0.53
					c0-0.22-0.06-0.4-0.18-0.54c-0.12-0.14-0.29-0.21-0.51-0.21c-0.25,0-0.43,0.08-0.56,0.24c-0.13,0.16-0.19,0.38-0.19,0.65h-1.04
					l-0.01-0.02c-0.01-0.47,0.15-0.87,0.47-1.19c0.33-0.32,0.77-0.49,1.33-0.49c0.55,0,0.98,0.14,1.3,0.42
					c0.31,0.28,0.47,0.65,0.47,1.11c0,0.31-0.09,0.6-0.27,0.87c-0.18,0.27-0.47,0.61-0.88,1.04l-0.95,1.01l0.01,0.02h2.24V108.76z"
					/>
				<path class="st0" d="M140.06,104.37c-0.57,0.65-0.96,1.26-1.17,1.82c-0.21,0.56-0.36,1.24-0.45,2.04l-0.05,0.53h-1.07l0.05-0.53
					c0.08-0.76,0.26-1.46,0.53-2.1c0.27-0.64,0.65-1.23,1.12-1.76h-2.74v-0.8h3.77V104.37z"/>
				<path class="st0" d="M144.33,106.73c0,0.69-0.16,1.21-0.49,1.56c-0.32,0.36-0.76,0.53-1.31,0.53c-0.56,0-1-0.18-1.32-0.53
					c-0.32-0.36-0.49-0.88-0.49-1.56v-1.15c0-0.69,0.16-1.21,0.49-1.56c0.32-0.36,0.76-0.54,1.32-0.54c0.55,0,0.99,0.18,1.32,0.54
					c0.33,0.36,0.49,0.88,0.49,1.56V106.73z M143.26,105.48c0-0.41-0.06-0.71-0.19-0.9c-0.13-0.19-0.31-0.29-0.55-0.29
					c-0.24,0-0.43,0.1-0.55,0.29c-0.12,0.19-0.19,0.49-0.19,0.91v1.35c0,0.42,0.06,0.72,0.19,0.91c0.13,0.19,0.31,0.29,0.56,0.29
					c0.24,0,0.42-0.1,0.55-0.29c0.12-0.19,0.19-0.49,0.19-0.91V105.48z"/>
				<path class="st0" d="M148.63,106.73c0,0.69-0.16,1.21-0.49,1.56c-0.32,0.36-0.76,0.53-1.31,0.53c-0.56,0-1-0.18-1.32-0.53
					c-0.32-0.36-0.49-0.88-0.49-1.56v-1.15c0-0.69,0.16-1.21,0.49-1.56c0.32-0.36,0.76-0.54,1.32-0.54c0.55,0,0.99,0.18,1.32,0.54
					c0.33,0.36,0.49,0.88,0.49,1.56V106.73z M147.57,105.48c0-0.41-0.06-0.71-0.19-0.9c-0.13-0.19-0.31-0.29-0.55-0.29
					c-0.24,0-0.43,0.1-0.55,0.29c-0.12,0.19-0.19,0.49-0.19,0.91v1.35c0,0.42,0.06,0.72,0.19,0.91c0.13,0.19,0.31,0.29,0.56,0.29
					c0.24,0,0.42-0.1,0.55-0.29c0.12-0.19,0.19-0.49,0.19-0.91V105.48z"/>
				<path class="st0" d="M151.76,108.76h-1.07v-4.27h-1.08v-0.73l2.15-0.19V108.76z"/>
			</g>
		</g>
	</g>
</g>
</svg>
