<?xml version="1.0" encoding="utf-8"?>
<!-- Generator: Adobe Illustrator 23.0.3, SVG Export Plug-In . SVG Version: 6.00 Build 0)  -->
<svg version="1.1" id="Layer_1" xmlns="http://www.w3.org/2000/svg" xmlns:xlink="http://www.w3.org/1999/xlink" x="0px" y="0px"
	 viewBox="0 0 358 140" style="enable-background:new 0 0 358 140;" xml:space="preserve">
<style type="text/css">
	.st0{fill:#FFFFFF;}
	.st1{fill:#B21E8C;}
	.st2{fill:#0087CE;}
	.st3{fill:#00A451;}
	.st4{fill:#F5911E;}
	.st5{fill:#ED4824;}
	.st6{font-family:'Montserrat-Regular';}
	.st7{font-size:26px;}
	.st8{font-family:'Montserrat-Medium';}
	.st9{font-size:31px;}
	.st10{fill:#F4F5F5;}
	.st11{fill:#04974A;}
	.st12{fill:none;stroke:#04974A;stroke-width:0.13;}
	.st13{fill:#EB2227;}
	.st14{fill:none;stroke:#EB2227;stroke-width:0.13;}
	.st15{fill:#FBED23;}
	.st16{fill:none;stroke:#FBED23;stroke-width:0.13;}
	.st17{fill:#414042;}
</style>
<g>
	<g>
		<g>
			<text transform="matrix(1 0 0 1 28.5913 29.0639)"><tspan x="0" y="0" class="st0 st6 st7">Accredited </tspan><tspan x="144.61" y="0" class="st0 st8 st9">VAT System</tspan></text>
		</g>
	</g>
	<g>
		<g>
			<g>
				<path class="st10" d="M47.09,57.69c-21.85,0-39.58,17.72-39.58,39.58c0,21.85,17.73,39.57,39.58,39.57
					c21.86,0,39.58-17.72,39.58-39.57C86.67,75.41,68.96,57.69,47.09,57.69 M47.09,124.28c-14.91,0-27.01-12.09-27.01-27.01
					c0-14.93,12.1-27.01,27.01-27.01c14.92,0,27.02,12.09,27.02,27.01C74.11,112.19,62.02,124.28,47.09,124.28"/>
				<path class="st11" d="M47.09,137.29c-22.06,0-40.02-17.95-40.02-40.01c0-22.07,17.95-40.02,40.02-40.02s40.02,17.95,40.02,40.02
					C87.11,119.33,69.16,137.29,47.09,137.29z M47.09,58.13c-21.58,0-39.13,17.56-39.13,39.14c0,21.58,17.56,39.14,39.13,39.14
					c21.58,0,39.14-17.56,39.14-39.14C86.23,75.69,68.68,58.13,47.09,58.13z"/>
			</g>
			<g>
				<g>
					<g>
						<g>
							<g>
								<path class="st11" d="M13.91,87l-0.88-0.34l-0.52,1.86l0.9,0.14c-3.18,3.48-0.47,5.72-0.16,5.9
									c0.84,0.5,0.76-1.22,0.71-1.56c-0.07-0.34-0.09-0.87-0.05-1.08c0.22-1.08,0.74-0.68,0.84-0.54
									c0.11,0.14,0.64,0.62,0.76,1.88l0.74-0.52c-0.1-0.84-0.67-1.86-0.84-2.02c-1.38-1.3-1.78,1.04-2,1.58
									c-0.22,0.54-0.53-0.04-0.56-0.2c-0.46-1.72,0.56-2.72,1.04-3.16l3.66,0.86l0.32-1.02l-4.18-1.1"/>
								<path class="st12" d="M13.91,87l-0.88-0.34l-0.52,1.86l0.9,0.14c-3.18,3.48-0.47,5.72-0.16,5.9
									c0.84,0.5,0.76-1.22,0.71-1.56c-0.07-0.34-0.09-0.87-0.05-1.08c0.22-1.08,0.74-0.68,0.84-0.54
									c0.11,0.14,0.64,0.62,0.76,1.88l0.74-0.52c-0.1-0.84-0.67-1.86-0.84-2.02c-1.38-1.3-1.78,1.04-2,1.58
									c-0.22,0.54-0.53-0.04-0.56-0.2c-0.46-1.72,0.56-2.72,1.04-3.16l3.66,0.86l0.32-1.02l-4.18-1.1L13.91,87z"/>
								<path class="st11" d="M17.43,79.19l-0.84-0.46l-0.96,1.62l0.84,0.58c-2.58,1.5-2.39,3.66-2.28,4
									c0.78,2.4,2.14,1.96,2.34,1.86c1.22-0.58,1.12-2.46,1.15-3.04l-1.1-0.02c0.34,0.86,0.1,2.22-0.06,2.41
									c-0.76,0.84-1.08,0.11-1.16-0.12c-0.92-2.9,1.28-4.2,1.63-4.4c0.36-0.21,0.56-0.02,0.71,0l2.48,1.4l0.5-0.88l-3.74-2.1"/>
								<path class="st12" d="M17.43,79.19l-0.84-0.46l-0.96,1.62l0.84,0.58c-2.58,1.5-2.39,3.66-2.28,4
									c0.78,2.4,2.14,1.96,2.34,1.86c1.22-0.58,1.12-2.46,1.15-3.04l-1.1-0.02c0.34,0.86,0.1,2.22-0.06,2.4
									c-0.76,0.84-1.08,0.11-1.16-0.12c-0.92-2.9,1.28-4.2,1.63-4.4c0.36-0.2,0.56-0.02,0.71,0l2.48,1.4l0.5-0.88l-3.74-2.1
									L17.43,79.19z"/>
							</g>
							<g>
								<path class="st11" d="M26.23,69.41c-0.2,1.3,0.48,1.73,0.86,1.76c1.78,0.14,2.02-0.95,2.36-1.39
									c0.7-0.02,0.13,1.24-0.02,1.43c-1.42,1.7-4.14,0.66-4.56,0.46l-0.24,0.4c4.64,1.68,5.78-0.46,5.84-0.72
									c0.63-2.4-1.3-2.34-1.68-2.28c-0.34,1.94-1.65,1.7-1.8,1.4c-0.54-1.04,1.12-2.16,1.52-2.4c0.54,0.24,2.32,0.12,2.73,0.08
									c-0.54,1.16,0.34,2.82,0.53,3.04l0.56-0.2c-0.96-1.36-0.06-3.22,0.16-3.5l-0.46-0.42c-1.02,1.04-2.1,0.74-2.54,0.72
									c-0.44-0.02-0.39-0.2-0.19-0.35l3.68-1.96l1.6,4.06l0.84-0.4l-1.52-3.98c5.58-2.54,13.15-2.78,13.64-2.74
									c0.5,0.04,0.3,1.04,0.25,1.2c-0.52-0.12-0.9,0.16-1.2,0.22c-1.56-1.9-2.81-0.24-3.08,0.1l0.74,0.6
									c1.04-1.73,2.08-0.76,2.22-0.52l-0.73,0.62l0.74,0.55c0.8-1.2,1.41-1.04,1.64-0.92c0.46,0.24,0.14,1.42,0.1,1.84
									c-1.58-1.42-4.7,1.48-3.8-0.92l-0.48,0.16c-0.34,3.38,3.77-0.08,4.53,1.46l0.44-0.02c0.7-2.52-0.26-2.78-0.54-3
									c0.47-0.18,0.34-0.86,0.34-1.24c0,0,1.12,0.04,1.94,0.1l-0.48,4.26l0.82,0.06l0.46-4.18l0.7,0.08l0.1-0.9l-0.88-0.08
									c-0.82-3.58-4.98-2.3-5.7-2.08l0.22,0.96c4.74-1.66,4.8,0.7,4.78,1.04c-9.32-0.92-16.31,2.2-16.61,2.32
									c-7.26,2.72-11.72,7.54-12.3,8.14l0.96,1c-4.31-0.34-3.96,3.64-3.92,4.18c0.68,0.44,0.9-0.46,0.98-0.68
									c0.08-0.22,1.24-0.6,1.02,0.72l0.86-0.02l1.36-3.86l1.66,1.7c-2.76,0.48-1.79,2.07-2.65,3.2c-0.66,1.1-1.68,0.26-1.84-0.1
									l-0.08,0.53c2.56,1.96,3.05-0.77,3.5-2.26c0.25-0.84,1.15-1.18,1.88-0.92l0.4-0.42l-2.94-3.14 M21.27,76.09
									c-0.02,0.1-0.22,0.44-0.34,0.16c-0.12-0.28-0.72-0.3-0.95-0.14c-0.13,0.09-0.33,0.1-0.25-0.26c0.08-0.36,0.44-2.12,2.2-1.96
									L21.27,76.09"/>
								<path class="st12" d="M21.27,76.09c-0.02,0.1-0.22,0.44-0.34,0.16c-0.12-0.28-0.72-0.3-0.95-0.14
									c-0.13,0.09-0.33,0.1-0.25-0.26c0.08-0.36,0.44-2.12,2.2-1.96L21.27,76.09z"/>
								<path class="st12" d="M26.23,69.41c-0.2,1.3,0.48,1.73,0.86,1.76c1.78,0.14,2.02-0.95,2.36-1.39
									c0.7-0.02,0.13,1.24-0.02,1.43c-1.42,1.7-4.14,0.66-4.56,0.46l-0.24,0.4c4.64,1.68,5.78-0.46,5.84-0.72
									c0.63-2.4-1.3-2.34-1.68-2.28c-0.34,1.94-1.65,1.7-1.8,1.4c-0.54-1.04,1.12-2.16,1.52-2.4c0.54,0.24,2.32,0.12,2.73,0.08
									c-0.54,1.16,0.34,2.82,0.53,3.04l0.56-0.2c-0.96-1.36-0.06-3.22,0.16-3.5l-0.46-0.42c-1.02,1.04-2.1,0.74-2.54,0.72
									c-0.44-0.02-0.39-0.2-0.19-0.35l3.68-1.96l1.6,4.06l0.84-0.4l-1.52-3.98c5.58-2.54,13.15-2.78,13.64-2.74
									c0.5,0.04,0.3,1.04,0.25,1.2c-0.52-0.12-0.9,0.16-1.2,0.22c-1.56-1.9-2.81-0.24-3.08,0.1l0.74,0.6
									c1.04-1.73,2.08-0.76,2.22-0.52l-0.73,0.62l0.74,0.55c0.8-1.2,1.41-1.04,1.64-0.92c0.46,0.24,0.14,1.42,0.1,1.84
									c-1.58-1.42-4.7,1.48-3.8-0.92l-0.48,0.16c-0.34,3.38,3.77-0.08,4.53,1.46l0.44-0.02c0.7-2.52-0.26-2.78-0.54-3
									c0.47-0.18,0.34-0.86,0.34-1.24c0,0,1.12,0.04,1.94,0.1l-0.48,4.26l0.82,0.06l0.46-4.18l0.7,0.08l0.1-0.9l-0.88-0.08
									c-0.82-3.58-4.98-2.3-5.7-2.08l0.22,0.96c4.74-1.66,4.8,0.7,4.78,1.04c-9.32-0.92-16.31,2.2-16.61,2.32
									c-7.26,2.72-11.72,7.54-12.3,8.14l0.96,1c-4.31-0.34-3.96,3.64-3.92,4.18c0.68,0.44,0.9-0.46,0.98-0.68
									c0.08-0.22,1.24-0.6,1.02,0.72l0.86-0.02l1.36-3.86l1.66,1.7c-2.76,0.48-1.79,2.07-2.65,3.2c-0.66,1.09-1.68,0.26-1.84-0.1
									l-0.08,0.53c2.56,1.96,3.05-0.77,3.5-2.26c0.25-0.84,1.15-1.18,1.88-0.92l0.4-0.42l-2.94-3.14L26.23,69.41z"/>
								<path class="st11" d="M40.06,66.62c-1.92,1.04-4.11-0.88-4.57-1.28l-0.39,0.1c1.93,2.86,4.76,2.29,5.02,2.2
									c2.58-0.93,2.04-3,1.93-3.18c-1.19-1.98-3.57-0.15-3.97,0.24l0.91,0.79c0.1-0.28,0.66-0.95,0.88-1.1
									c1.15-0.78,1.67,0.24,1.65,0.42C41.37,65.86,40.27,66.51,40.06,66.62"/>
								<path class="st12" d="M40.06,66.62c-1.92,1.04-4.11-0.88-4.57-1.28l-0.39,0.1c1.93,2.86,4.76,2.29,5.02,2.2
									c2.58-0.93,2.04-3,1.93-3.18c-1.19-1.98-3.57-0.15-3.97,0.24l0.91,0.79c0.1-0.28,0.66-0.95,0.88-1.1
									c1.15-0.78,1.67,0.24,1.65,0.42C41.37,65.86,40.27,66.51,40.06,66.62z"/>
							</g>
						</g>
						<g>
							<path class="st11" d="M54.49,64.57l0.14,0.99c3.15,0.71,3.54,2.86,3.62,3.33l0.32,0.04l1.86-3.89l1.42,0.65l-1.99,3.84
								l0.82,0.35l1.87-3.83l0.61,0.24l0.4-0.83c-3.9-1.94-8.05-2.87-8.55-3.01l-0.31,0.91c0.64-0.03,5.02,1.34,5.02,1.34
								l-0.17,0.41 M58.45,67.13c0,0-0.88-1.14-1.33-1.36l2.1-0.02L58.45,67.13z"/>
							<path class="st12" d="M58.45,67.13c0,0-0.88-1.14-1.33-1.36l2.1-0.02L58.45,67.13z"/>
							<path class="st12" d="M54.49,64.57l0.14,0.99c3.15,0.71,3.54,2.86,3.62,3.33l0.32,0.04l1.86-3.89l1.42,0.65l-1.99,3.84
								l0.82,0.35l1.87-3.83l0.61,0.24l0.4-0.83c-3.9-1.94-8.05-2.87-8.55-3.01l-0.31,0.91c0.64-0.03,5.02,1.34,5.02,1.34
								l-0.17,0.41L54.49,64.57z"/>
							<path class="st11" d="M66.81,67c-1.1-1.47-2.75-0.41-2.96-0.13c-0.79,1.11,0,1.91,0.29,2.11c0.6,0.41,1.73,0.4,2.02,0.26
								C67.61,68.51,66.93,67.16,66.81,67 M65.93,68.59c-0.38,0.07-0.92,0.13-1.56-0.15c-0.71-0.32-0.33-0.95-0.16-1.11
								c0.06-0.19,1.82-0.56,2.45,0.15C66.8,67.62,67.09,68.38,65.93,68.59"/>
							<path class="st12" d="M65.93,68.59c-0.38,0.07-0.92,0.13-1.56-0.15c-0.71-0.31-0.33-0.95-0.16-1.11
								c0.06-0.19,1.82-0.56,2.45,0.16C66.8,67.62,67.09,68.38,65.93,68.59z"/>
							<path class="st12" d="M66.81,67c-1.1-1.47-2.75-0.41-2.96-0.13c-0.79,1.11,0,1.91,0.29,2.11c0.6,0.41,1.73,0.4,2.02,0.26
								C67.61,68.51,66.93,67.16,66.81,67z"/>
							<path class="st11" d="M65,73l0.29-0.47c-0.34-1.28-2.08-3.17-2.34-3.46l-0.55,0.77C62.67,70.03,64.81,71.44,65,73"/>
							<path class="st12" d="M65,73l0.29-0.47c-0.34-1.28-2.08-3.17-2.34-3.46l-0.55,0.77C62.67,70.03,64.81,71.44,65,73z"/>
							<path class="st11" d="M83,96.07l-0.1-1.82l-1.51,0.06c1.72-1.97-0.27-3.41-0.55-3.7c1.29-1.34,0.98-2.3,0.95-2.49
								c-0.34-2.46-2.39-6.64-2.47-6.84c-1.21-2.86-4.31-6.56-4.45-6.75c-2.19-2.9-6.42-6-6.42-6l-0.59,0.63
								c0,0,5.07,4.38,5.32,4.72l-1.13,0.81c-0.46-2-1.86-1.88-2.19-1.96c-0.48-2.48-1.94-2.4-2.28-2.34
								c-1.51,0.32-1.46,1.52-1.38,1.82c0.24,0.96,1.48,1.29,1.97,1.3l-0.01-0.91c-1.3-0.03-1.49-0.59-1.51-0.79
								c-0.09-0.93,1.51-0.63,1.84-0.45c1.17,0.62,1.04,2.14,0.96,2.69c1.71-0.69,2.39,0.55,2.39,0.9l-2.07,1.65l0.55,0.69
								l3.44-2.75l0.96,1.25l-3.51,2.43l0.48,0.74l3.64-2.45l1.46,2.18c-2.04-0.66-3.14,0.32-3.28,0.51
								c-1.25,1.57,0.06,2.79,0.52,3.1l0.29-0.83c-0.99-0.34-0.89-1.08-0.86-1.33c0.19-1.21,1.89-0.96,2.19-0.94
								c1.02,0.1,2.27,1.51,2.58,1.85l-2.91,1.31l0.07,1.24c0.89,0.38,1.86,1.51,2.33,1.96c-1.47,0.13-2.06,0.6-2.42,0.82l0.2,0.38
								c1.41-1.03,2.54-0.11,2.89,0.11l0.4-1.48c-0.31-0.65-2-2.14-2.26-2.39l2.08-1.02c0.88,1.4,2.26,5.75,2.31,6.02
								c0.57,3.03-1.09,2.58-1.33,2.52c-0.66-0.18-0.45-1.62-0.41-2.01l-1.13-0.04c-0.11,1.68,0.67,2.19,1.42,2.58
								c-1.19,1.13-0.51,2.28-0.25,2.55l0.9-0.61c-0.48-0.5-0.44-0.87-0.44-1.08c0.01-0.93,0.87-0.44,1.04-0.35
								c0.72,0.38,0.69,1.41,0.66,1.61c-0.21,1.22-1.34,1.21-1.56,1.21c-0.23,0-2.14,0.03-2.14,0.03v0.99l4.29-0.16v0.89"/>
							<path class="st12" d="M83,96.07l-0.1-1.82l-1.51,0.06c1.72-1.97-0.27-3.41-0.55-3.7c1.29-1.34,0.98-2.3,0.95-2.49
								c-0.34-2.46-2.39-6.64-2.47-6.84c-1.21-2.86-4.31-6.56-4.45-6.75c-2.19-2.9-6.42-6-6.42-6l-0.59,0.63
								c0,0,5.07,4.38,5.32,4.72l-1.13,0.81c-0.46-2-1.86-1.88-2.19-1.96c-0.48-2.48-1.94-2.4-2.28-2.34
								c-1.51,0.32-1.46,1.52-1.38,1.82c0.24,0.96,1.48,1.29,1.97,1.3l-0.01-0.91c-1.3-0.03-1.49-0.59-1.51-0.79
								c-0.09-0.93,1.51-0.63,1.84-0.45c1.17,0.62,1.04,2.14,0.96,2.69c1.71-0.69,2.39,0.55,2.39,0.9l-2.07,1.65l0.55,0.69
								l3.44-2.75l0.96,1.25l-3.51,2.43l0.48,0.74l3.64-2.45l1.46,2.18c-2.04-0.66-3.14,0.32-3.28,0.51
								c-1.25,1.57,0.06,2.79,0.52,3.1l0.29-0.83c-0.99-0.34-0.89-1.08-0.86-1.33c0.19-1.21,1.89-0.96,2.19-0.94
								c1.02,0.1,2.27,1.51,2.58,1.85l-2.91,1.31l0.07,1.24c0.89,0.38,1.86,1.51,2.33,1.96c-1.47,0.13-2.06,0.6-2.42,0.82l0.2,0.38
								c1.41-1.03,2.54-0.11,2.89,0.11l0.4-1.48c-0.31-0.65-2-2.14-2.26-2.39l2.08-1.02c0.88,1.4,2.26,5.75,2.31,6.02
								c0.57,3.03-1.09,2.58-1.33,2.52c-0.66-0.18-0.45-1.62-0.41-2.01l-1.13-0.04c-0.11,1.68,0.67,2.19,1.42,2.58
								c-1.19,1.13-0.51,2.28-0.25,2.55l0.9-0.61c-0.48-0.5-0.44-0.87-0.44-1.08c0.01-0.93,0.87-0.44,1.04-0.35
								c0.72,0.38,0.69,1.41,0.66,1.61c-0.21,1.22-1.34,1.21-1.56,1.21c-0.23,0-2.14,0.03-2.14,0.03v0.99l4.29-0.16v0.89L83,96.07z"
								/>
						</g>
					</g>
					<g>
						<path class="st11" d="M64.53,123.06l-0.52-0.7c-5.92,4.29-14.01,4.84-14.45,4.9c-5.81,0.71-11.91-1.39-12.27-1.51
							c-4.51-1.43-8.31-4.35-8.59-4.67l-0.55,0.57l0.4,0.49c-0.11,0.17-0.11,0.56,0.21,0.64c0.31,0.09,1.22,1.02,1.27,1.29
							c0.2,1.06-0.81,1.21-1.07,1.27c-0.26,0.06-1.21-0.05-0.9-1.17l-0.56-0.06c-0.15,3.86,3.49,1.53,4.87,2.14
							c0.93,0.44,0.77,1.32,0.7,1.52l-0.87,1.45l1.03,0.46l1.73-3.84c2.95,1.39,6.38,1.78,6.91,1.88l-0.07,0.42l-5.55-0.11
							l-0.05,1.1c3.21,0.09,5,2.65,5.13,2.89l0.79,0.11l0.64-4.17c3.18,0.5,6.77,0.22,7.23,0.17l0.05,0.33c0,0-4.76,1.38-5.44,1.58
							l0.52,0.85c3.34-0.57,5,1.19,5.26,1.47l0.97-0.11l-0.21-3.07c0.84-0.39,2.16-0.29,2.3-0.16c0.15,0.13,0.9,0.92-1.06,1.06
							l0.36,0.88c2-0.55,1.48-1.83,1.3-2.04c-0.69-0.84-2.42-0.66-2.87-0.66v-0.28c2.08-0.22,3.4-0.68,4.01-0.83l1.15,4.14
							l0.95-0.29l-1.14-4.05c2.74-0.7,6.03-2.48,6.66-2.85l0.14,0.28l-4.45,3.47l0.9,0.68c1.51-1.58,5.54-1.07,6.03-0.98l0.37-0.35
							l-2.13-3.57 M33.55,126.72c-0.59-0.33-0.41-2.15-3.07-1.76l-0.05-1.41c0,0,3.04,1.67,3.73,1.87L33.55,126.72z M41.33,130.85
							c0,0-1.09-1.3-2.08-1.69h2.37L41.33,130.85z M47.83,130.06l2.3-0.74l0.15,2.1C49.91,131.24,48.73,130.17,47.83,130.06
							 M64.25,126.66c0,0-1.77-0.18-2.59-0.02l1.63-1.49L64.25,126.66z"/>
						<path class="st12" d="M64.25,126.66c0,0-1.77-0.18-2.59-0.02l1.63-1.49L64.25,126.66z"/>
						<path class="st12" d="M47.83,130.06l2.3-0.74l0.15,2.1C49.91,131.24,48.73,130.17,47.83,130.06z"/>
						<path class="st12" d="M41.33,130.85c0,0-1.09-1.3-2.08-1.69h2.37L41.33,130.85z"/>
						<path class="st12" d="M33.55,126.72c-0.59-0.33-0.41-2.15-3.07-1.76l-0.05-1.41c0,0,3.04,1.67,3.73,1.87L33.55,126.72z"/>
						<path class="st12" d="M64.53,123.06l-0.52-0.7c-5.92,4.29-14.01,4.84-14.45,4.9c-5.81,0.71-11.91-1.39-12.27-1.51
							c-4.51-1.43-8.31-4.35-8.59-4.67l-0.55,0.57l0.4,0.49c-0.11,0.17-0.11,0.56,0.21,0.64c0.31,0.09,1.22,1.02,1.27,1.29
							c0.2,1.06-0.81,1.21-1.07,1.27c-0.26,0.06-1.21-0.05-0.9-1.17l-0.56-0.06c-0.15,3.86,3.49,1.53,4.87,2.14
							c0.93,0.44,0.77,1.32,0.7,1.52l-0.87,1.45l1.03,0.46l1.73-3.84c2.95,1.39,6.38,1.78,6.91,1.88l-0.07,0.42l-5.55-0.11
							l-0.05,1.1c3.21,0.09,5,2.65,5.13,2.89l0.79,0.11l0.64-4.17c3.18,0.5,6.77,0.22,7.23,0.17l0.05,0.33c0,0-4.76,1.38-5.44,1.58
							l0.52,0.85c3.34-0.57,5,1.19,5.26,1.47l0.97-0.11l-0.21-3.07c0.84-0.39,2.16-0.29,2.3-0.16c0.15,0.13,0.9,0.92-1.06,1.06
							l0.36,0.88c2-0.55,1.48-1.83,1.3-2.04c-0.69-0.84-2.42-0.66-2.87-0.66v-0.28c2.08-0.22,3.4-0.68,4.01-0.83l1.15,4.14
							l0.95-0.29l-1.14-4.05c2.74-0.7,6.03-2.48,6.66-2.85l0.14,0.28l-4.45,3.47l0.9,0.68c1.51-1.58,5.54-1.07,6.03-0.98l0.37-0.35
							l-2.13-3.57L64.53,123.06z"/>
						<path class="st11" d="M37.71,130.45l-0.11,0.68c0.5,0.06,1.22,0.62,1.46,0.86l0.25-0.57
							C38.72,130.67,37.98,130.52,37.71,130.45"/>
						<path class="st12" d="M37.71,130.45l-0.11,0.68c0.5,0.06,1.22,0.62,1.46,0.86l0.25-0.57
							C38.72,130.67,37.98,130.52,37.71,130.45z"/>
						<path class="st11" d="M61.64,128.41L61.8,129c0.41-0.35,1.59-0.5,1.59-0.5l0.02-0.57C62.84,127.75,61.64,128.41,61.64,128.41"
							/>
						<path class="st12" d="M61.64,128.41L61.8,129c0.41-0.35,1.59-0.5,1.59-0.5l0.02-0.57C62.84,127.75,61.64,128.41,61.64,128.41z
							"/>
					</g>
				</g>
				<g>
					<g>
						<g>
							<polyline class="st13" points="14.42,105.74 11.09,106.19 13.64,103.94 12.14,100.91 15.02,102.67 17.49,100.31 
								16.74,103.56 19.74,105.18 16.37,105.51 15.73,108.73 							"/>
							<polygon class="st14" points="14.42,105.74 11.09,106.19 13.64,103.94 12.14,100.91 15.02,102.67 17.49,100.31 16.74,103.56 
								19.74,105.18 16.37,105.51 15.73,108.73 							"/>
						</g>
						<g>
							<polyline class="st13" points="15.88,112.81 19.22,113.71 20.93,110.79 21.12,114.09 24.45,114.84 21.31,116.07 21.65,119.4 
								19.51,116.78 16.41,118.13 18.24,115.32 							"/>
							<polygon class="st14" points="15.88,112.81 19.22,113.71 20.93,110.79 21.12,114.09 24.45,114.84 21.31,116.07 21.65,119.4 
								19.51,116.78 16.41,118.13 18.24,115.32 							"/>
						</g>
					</g>
					<g>
						<g>
							<polyline class="st13" points="72.21,120.07 72.66,116.74 69.56,115.44 72.96,114.84 73.26,111.5 74.8,114.42 78.16,113.75 
								75.77,116.18 77.56,119.1 74.45,117.6 							"/>
							<polygon class="st14" points="72.21,120.07 72.66,116.74 69.56,115.44 72.96,114.84 73.26,111.5 74.8,114.42 78.16,113.75 
								75.77,116.18 77.56,119.1 74.45,117.6 							"/>
						</g>
						<g>
							<polyline class="st13" points="78.46,109.71 77.98,106.34 74.57,105.92 77.64,104.46 77,101.13 79.36,103.53 82.36,101.92 
								80.78,104.92 83.18,107.16 79.92,106.67 							"/>
							<polygon class="st14" points="78.46,109.71 77.98,106.34 74.57,105.92 77.64,104.46 77,101.13 79.36,103.53 82.36,101.92 
								80.78,104.92 83.18,107.16 79.92,106.67 							"/>
						</g>
					</g>
				</g>
			</g>
			<g>
				<g>
					<path class="st13" d="M47.09,124.28c-14.91,0-27.01-12.09-27.01-27.01c0-14.93,12.1-27.01,27.01-27.01
						c14.92,0,27.02,12.09,27.02,27.01C74.11,112.19,62.02,124.28,47.09,124.28"/>
					<path class="st14" d="M47.09,124.28c-14.91,0-27.01-12.09-27.01-27.01c0-14.93,12.1-27.01,27.01-27.01
						c14.92,0,27.02,12.09,27.02,27.01C74.11,112.19,62.02,124.28,47.09,124.28z"/>
				</g>
				<g>
					<path class="st15" d="M54.33,106.41c-0.12-0.18-0.16-0.4-0.2-0.62c-0.03-0.22-0.24-0.31-0.41-0.49l-0.18-0.07
						c-0.05,0.12-0.15,0.3-0.21,0.69c-0.04,0.39,0.02,0.67,0.07,0.82l0.32,0.52l0.29,0.3l0.4-0.27c0.1-0.07,0.05-0.2,0.05-0.47
						C54.47,106.56,54.45,106.6,54.33,106.41"/>
					<path class="st16" d="M54.33,106.41c-0.12-0.18-0.16-0.4-0.2-0.62c-0.03-0.22-0.24-0.31-0.41-0.49l-0.18-0.07
						c-0.05,0.12-0.15,0.3-0.21,0.69c-0.04,0.39,0.02,0.67,0.07,0.82l0.32,0.52l0.29,0.3l0.4-0.27c0.1-0.07,0.05-0.2,0.05-0.47
						C54.47,106.56,54.45,106.6,54.33,106.41z"/>
					<path class="st15" d="M51.53,106.19c-0.18-0.1-0.28-0.05-0.52,0c-0.24,0.05-0.05,0.24,0.02,0.34l-0.02,0.57l-0.05,1.09
						c0.01,0.19-0.14,0.84-0.19,1.13c-0.35-0.07-0.38,0.12-0.43,0.27l0.29,0.31c0.32-0.03,0.32-0.15,0.32-0.36
						c0.32-0.07,0.64-0.52,0.79-0.69l0.23-0.67c0.1-0.54-0.06-0.76-0.27-1.01c-0.2-0.25-0.23-0.49-0.02-0.45l0.22,0.4l0.3-0.03
						c0.12-0.08-0.01-0.34-0.17-0.64C51.88,106.14,51.72,106.3,51.53,106.19"/>
					<path class="st16" d="M51.53,106.19c-0.18-0.1-0.28-0.05-0.52,0c-0.24,0.05-0.05,0.24,0.02,0.34l-0.02,0.57l-0.05,1.09
						c0.01,0.19-0.14,0.84-0.19,1.13c-0.35-0.07-0.38,0.12-0.43,0.27l0.29,0.31c0.32-0.03,0.32-0.15,0.32-0.36
						c0.32-0.07,0.64-0.52,0.79-0.69l0.23-0.67c0.1-0.54-0.06-0.76-0.27-1.01c-0.2-0.25-0.23-0.49-0.02-0.45l0.22,0.4l0.3-0.03
						c0.12-0.08-0.01-0.34-0.17-0.64C51.88,106.14,51.72,106.3,51.53,106.19z"/>
					<polyline class="st15" points="48.73,110.45 48.63,110.89 48.39,111.06 48.46,111.36 48.89,111.39 49.06,111.2 49.15,110.89 
						48.95,110.47 48.73,110.45 					"/>
					<polygon class="st16" points="48.73,110.45 48.63,110.89 48.39,111.06 48.46,111.36 48.89,111.39 49.06,111.2 49.15,110.89 
						48.95,110.47 					"/>
					<path class="st15" d="M48.72,110.31l-0.12-0.3l-0.55,0.28l-0.1,0.34l0.32,0.07C48.57,110.56,48.66,110.41,48.72,110.31"/>
					<path class="st16" d="M48.72,110.31l-0.12-0.3l-0.55,0.28l-0.1,0.34l0.32,0.07C48.57,110.56,48.66,110.41,48.72,110.31z"/>
					<path class="st15" d="M47.1,110.94c-0.22,0.02-0.2,0-0.22-0.1l-0.27-0.05l-0.08,0.34l0.32,0.1l0.32,0.17l0.2-0.27
						C47.38,111.03,47.32,110.92,47.1,110.94"/>
					<path class="st16" d="M47.1,110.94c-0.22,0.02-0.2,0-0.22-0.1l-0.27-0.05l-0.08,0.34l0.32,0.1l0.32,0.17l0.2-0.27
						C47.38,111.03,47.32,110.92,47.1,110.94z"/>
					<path class="st15" d="M47.81,110.07l-0.49,0.14l-0.11,0.38l0.23,0.2c0.51-0.2,0.47-0.45,0.52-0.54L47.81,110.07"/>
					<path class="st16" d="M47.81,110.07l-0.49,0.14l-0.11,0.38l0.23,0.2c0.51-0.2,0.47-0.45,0.52-0.54L47.81,110.07z"/>
					<path class="st15" d="M42.25,110.77L42,110.29l0.22-0.54l-0.14-0.22l-0.32-0.07c-0.12,0.05-0.24,0.39-0.28,0.6
						c-0.05,0.22,0.04,0.44,0.04,0.71c0,0.27,0.37,0.32,0.6,0.35C42.34,111.16,42.45,110.87,42.25,110.77"/>
					<path class="st16" d="M42.25,110.77L42,110.29l0.22-0.54l-0.14-0.22l-0.32-0.07c-0.12,0.05-0.24,0.39-0.28,0.6
						c-0.05,0.22,0.04,0.44,0.04,0.71c0,0.27,0.37,0.32,0.6,0.35C42.34,111.16,42.45,110.87,42.25,110.77z"/>
					<path class="st15" d="M41.41,110.99l-0.17-0.64l-0.52-0.17l-0.05,0.6l-0.18,0.35l0.21,0.39l-0.03,0.42l0.39,0.08l0.06-0.34
						l-0.09-0.32l-0.11-0.12l0.03-0.18l0.17,0.26l0.27,0.27c0.1,0.11,0.3,0.03,0.46-0.18C42,111.21,41.56,111.11,41.41,110.99"/>
					<path class="st16" d="M41.41,110.99l-0.17-0.64l-0.52-0.17l-0.05,0.6l-0.18,0.35l0.21,0.39l-0.03,0.42l0.39,0.08l0.06-0.34
						l-0.09-0.32l-0.11-0.12l0.03-0.18l0.17,0.26l0.27,0.27c0.1,0.11,0.3,0.03,0.46-0.18C42,111.21,41.56,111.11,41.41,110.99z"/>
					<path class="st15" d="M42.97,110.09c0,0,0.15-0.22-0.07-0.34c-0.22-0.11-0.22-0.23-0.22-0.23l-0.13,0.12l-0.1,0.13l-0.06,0.25
						l-0.04,0.37c0.04,0.1-0.08,0.17,0.14,0.28c0.22,0.12,0.24,0.14,0.35,0.12l0.24-0.17l0.01-0.24L42.97,110.09"/>
					<path class="st16" d="M42.97,110.09c0,0,0.15-0.22-0.07-0.34c-0.22-0.11-0.22-0.23-0.22-0.23l-0.13,0.12l-0.1,0.13l-0.06,0.25
						l-0.04,0.37c0.04,0.1-0.08,0.17,0.14,0.28c0.22,0.12,0.24,0.14,0.35,0.12l0.24-0.17l0.01-0.24L42.97,110.09z"/>
					<path class="st15" d="M61.84,114.73l-0.06-0.34l-0.17-0.45c0-0.08-0.07-0.8-0.03-1.07c0.03-0.27-0.09-0.56-0.05-0.77
						c0.04-0.22-0.01-0.52,0.05-0.72c0.07-0.2,0.08-0.51,0.1-0.77c0.01-0.27-0.05-0.45-0.09-0.59l-0.22-0.52l0.07-0.45
						c0.06-0.07,0.2,0,0.18-0.37c-0.02-0.37-0.05-0.42-0.09-0.49l-0.17-0.4l-0.08-0.5l-0.04-0.61c0.08-0.11,0.13-0.13,0.08-0.42
						c-0.07-0.38-0.29-0.7-0.29-0.88l-0.01-0.67c-0.14-0.15-0.39-0.2-0.35-0.45c0.03-0.25-0.1-0.55-0.17-0.74
						c-0.07-0.18-0.22-0.17-0.31-0.42c-0.09-0.25,0.04-0.64-0.03-0.8c-0.07-0.17-0.18-0.51-0.18-0.74s-0.07-0.47,0.04-0.66
						l0.12-0.47l-0.13-0.54l-0.13-0.45l-0.18-0.55l-0.08-0.4c-0.08-0.1-0.22-0.25-0.17-0.47c0.05-0.22,0.07-0.49,0.04-0.58
						l-0.27-0.14l-0.16,0.27l-0.22-0.01l-0.2-0.34l-0.31,0.12l-0.16,0.32l-0.19,0.25l-0.33-0.08l-0.2-0.37l-0.41,0.05l-0.13,0.49
						l0.08,0.59l-0.03,0.24l0.1,0.32l-0.2,0.22l-0.27,0.06l-0.18,0.34l-0.49,0.42l-0.21,0.49l0.17,0.69l0.18,0.66l-0.57,0.65
						l-0.5,0.27c-0.07,0.02-0.4,0.01-0.53-0.29c-0.12-0.3-0.24-0.42-0.21-0.57c0.02-0.15-0.17-0.67-0.25-0.89
						c-0.09-0.21-0.24-0.49-0.35-0.52l-0.42,0.15l-0.04,0.67l0.13,0.44l-0.15,0.13l-0.18-0.57c0-0.12-0.17-0.32-0.1-0.57
						c0.07-0.25-0.17-0.97-0.23-1.17l-0.25-0.7l-0.22-0.47l-0.22-0.28L52,97.94l0.16-0.24l-0.22-0.3l0.34-0.08l0.1-0.3l0.15-0.34
						l0.04-0.61l0.1-0.22l0.15-0.27h0.49l0.17-0.32l0.13-0.28l0.02-0.28c0.16,0,0.15-0.05,0.39,0.08c0.23,0.14,0.33,0.05,0.59,0.08
						c0.24,0.03,0.38,0.08,0.5-0.05l0.15-0.47l0.06-0.29c0.16,0.14,0.11,0.19,0.4,0.27c0.28,0.08,0.4,0.17,0.43,0.07l-0.12-0.39
						c-0.1-0.08-0.06-0.35,0.16-0.25c0.21,0.1,0.37,0.03,0.42,0.27c0.05,0.23-0.01,0.32,0.1,0.4l0.3,0.07l0.25-0.41l0.13-0.5
						l0.04-0.33l0.28,0.01l0.2-0.18l-0.2-0.27l0.05-0.16l0.7,0.06l0.29-0.25l0.07-0.48l0.03-0.3h0.46l0.18-0.14l0.02-0.47l0.05-0.52
						l0.21-0.4l0.03-0.5l-0.26-0.4l0.1-0.33l0.37,0.18l0.31,0.15l0.5-0.03l0.38-0.22l-0.06-0.23l-0.12-0.18l-0.06-0.28l-0.29-0.15
						l-0.1-0.32l-0.27-0.17l-0.38-0.12l-0.32-0.08l-0.2-0.13l-0.28-0.15l-0.34-0.13l-0.29-0.21l-0.21-0.12l-0.79-0.03
						c-0.09,0-0.86-0.02-1.16,0.05c-0.3,0.06-0.35,0.1-0.47,0.17l-0.44,0.08l-0.17-0.34l-0.35-0.03c-0.2,0.12-0.2,0.35-0.43,0.3
						c-0.23-0.05-0.19-0.11-0.32-0.17l-0.34-0.05l-0.55-0.11c-0.14-0.1-0.32-0.28-0.54-0.23c-0.22,0.05-0.18,0.13-0.4,0.11
						c-0.22-0.01-0.3-0.01-0.46-0.07c-0.15-0.05-0.72-0.02-0.94,0.1c-0.21,0.12-0.36,0.25-0.68,0.24c-0.31-0.02-0.42,0.01-0.57-0.07
						l-0.46-0.08l-0.25,0.05l-0.81-0.07c-0.17,0.07-0.27,0.17-0.48,0.2c-0.22,0.03-0.17,0.05-0.34-0.02l-0.42-0.05l-0.28-0.11
						c-0.09-0.1-0.12-0.03-0.34-0.07c-0.22-0.03-0.24-0.14-0.32-0.17l-0.5-0.12c-0.18,0.03-0.23-0.05-0.46-0.07
						c-0.22-0.02-0.35-0.09-0.47-0.27l-0.57-0.2c-0.13,0-0.2-0.02-0.42-0.02c-0.22,0-0.32,0.02-0.34-0.18
						c-0.01-0.2-0.05-0.39-0.01-0.6c0.03-0.22,0.09-0.34,0.13-0.4l0.07-0.55l0.09-0.28l0.12-0.44l-0.24-0.28l-0.1-0.42l0.38-0.44
						l0.34-0.52l-0.1-0.4l-0.33-0.19l-0.09-0.28l-0.3-0.2l-0.22-0.35l-0.05-0.35l-0.14-0.35l-0.35-0.15l-0.1-0.35h-0.28l-0.24,0.12
						l-0.05,0.2l-0.27,0.24l0.05,0.39l0.13,0.25l-0.17,0.18l-0.09,0.33c-0.17-0.07-0.1-0.15-0.35-0.13
						c-0.26,0.02-0.31,0.07-0.36-0.03l-0.4-0.14l-0.47-0.05l-0.32-0.3l-0.25-0.25l-0.35-0.18l-0.16-0.3l-0.09-0.39l-0.1-0.34
						l0.05-0.34l-0.25-0.22l-0.1-0.3l-0.36-0.22l-0.32-0.14l-0.37-0.08L37,77.63l0.07,0.32l0.3,0.23l0.22,0.17l0.24,0.19l-0.19,0.18
						l-0.37-0.23l-0.36-0.17l-0.26,0.11l-0.11,0.22l-0.13-0.24l-0.17-0.32l-0.37-0.23l-0.25-0.24l-0.19-0.2l-0.24-0.22l-0.3-0.3
						l-0.43-0.25l-0.37-0.25c-0.17-0.05-0.25-0.07-0.25-0.3c0-0.24-0.07-0.4-0.21-0.4l-0.23,0.07l-0.1,0.32l-0.2,0.3l-0.12,0.33
						v0.41h0.37l0.2-0.14l0.37,0.14l0.1,0.25v0.32l-0.39,0.15l-0.46,0.42L33,78.66l-0.18,0.14c-0.09,0.03-0.39,0.11-0.61,0.26
						c-0.22,0.15-0.34,0.3-0.39,0.48l-0.06,0.41l-0.07,0.39l-0.27,0.35l-0.1,0.62l0.09,0.56c0.1,0.05-0.02,0.13,0.22,0.17
						c0.24,0.03,0.37,0.05,0.47-0.03l0.27-0.12l0.21,0.29c0.08,0.07,0.25,0.47,0.9,0.62L33.62,83l0.25,0.51l0.29,0.4l0.4,0.18
						l0.39,0.2l0.35,0.01l0.35-0.14l0.41-0.01l0.05,0.3l0.01,0.37l0.15,0.33l0.32,0.18l0.14,0.25l0.05,0.15l-0.03,0.4v0.24
						l-0.34-0.1l-0.3,0.08l-0.28,0.07l-0.44-0.27l-0.51,0.05c-0.06,0.07-0.09,0.19-0.3,0.17c-0.22-0.02-0.1-0.1-0.31-0.15
						c-0.22-0.05-0.46-0.08-0.57-0.07l-0.24,0.12l0.08,0.32l-0.08,0.62l-0.05,0.47l-0.3,0.28c-0.17,0.03-0.38,0-0.4,0.21
						c-0.02,0.22,0.06,0.46-0.1,0.34l-0.42-0.2c-0.05-0.1-0.05-0.2-0.29-0.19c-0.23,0.02-0.42-0.15-0.43,0.08
						c-0.02,0.23,0.07,0.42,0,0.54l-0.25,0.42l-0.2,0.28l-0.17,0.28l-0.29,0.3l0.04,0.37c0.19,0.03,0.06-0.03,0.22,0.2
						c0.15,0.24,0.46,0.56,0.58,0.72l1.03,0.74l0.47,0.27l0.36,0.17l0.67,0.35c0.15,0.05,0.17,0.12,0.4,0.12
						c0.23,0,0.39-0.01,0.58,0l0.34,0.17l0.11,0.37L35.32,94l-0.28,0.25l0.1,0.43L35.27,95l0.02,0.42l-0.27,0.33l-0.33,0.15
						l-0.35,0.15l-0.03,0.37l-0.22,0.18l-0.07,0.19l0.1,0.35l-0.1,0.47l0.15,0.41l0.27,0.11l0.15,0.27l0.17,0.17l0.22,0.16
						l0.29,0.12l0.26,0.09l-0.11,0.22l-0.15,0.25l-0.02,0.25l-0.18,0.15l-0.08,0.35l0.04,0.28c0.15,0.05,0.06,0.2,0.3,0.25
						c0.24,0.05,0.2,0.08,0.38,0.08c0.19,0,0.07,0.02,0.31,0.02c0.23,0,0.22,0.05,0.4,0l0.37,0.05v0.2l-0.42,0.15l-0.22,0.27
						l-0.2,0.48l-0.05,0.37l0.14,0.35l0.2,0.45l0.15,0.35l0.19,0.23l-0.06,0.29l-0.24,0.39c0.05,0.12-0.05,0.1,0.17,0.23
						c0.21,0.13,0.25,0.17,0.02,0.37c-0.24,0.2-0.11,0.33-0.05,0.47l0.16,0.38c0.14,0.18,0.2,0.18,0.17,0.47
						c-0.03,0.29-0.06,0.4-0.06,0.4l-0.07,0.51l0.14,0.57l0.18,0.37c0.17,0.1,0.15-0.05,0.22,0.19c0.07,0.23,0.22,0.37,0.07,0.41
						l-0.17,0.17l0.12,0.54c0.04,0.11,0,0,0.09,0.3c0.08,0.3,0.07,0.47-0.02,0.5l-0.24,0.05l-0.03,0.41l0.02,0.38l0.03,0.32
						l0.29,0.37l0.11,0.17l0.05,0.13l0.37-0.1l0.15-0.19l-0.09-0.39l-0.33-0.25l-0.02-0.37l0.03-0.4l0.1-0.11l-0.03,0.28v0.33
						l0.15,0.32l0.22,0.05l0.18-0.12l0.12,0.25l0.04,0.42l-0.06,0.24l0.06,0.38c0.12,0.02,0.05,0.17,0.28,0.05
						c0.24-0.12,0.27-0.19,0.31-0.27l0.04-0.23l-0.14-0.1l0.1-0.28v-0.37l-0.07-0.57l-0.07-0.25l-0.2-0.2l-0.03-0.54l0.05-0.45
						l0.2-0.26l0.22,0.02l0.09,0.1l-0.22,0.35l0.25,0.39l0.37,0.32l0.09,0.22l-0.09,0.44l-0.18-0.05l-0.27,0.09l-0.01,0.35l0.3,0.15
						l0.08,0.37l0.17,0.22l0.33-0.08l0.22-0.24l0.15-0.27l-0.18-0.3l-0.07-0.3l0.05-0.22l0.3,0.01l0.09-0.27l0.03-0.39l-0.28-0.35
						l-0.02-0.2l0.23-0.16c0,0-0.1,0.61,0.32,0.66c0.07-0.25,0.12-0.77,0.24-0.77c0.11,0,0.11,0.07,0.35,0.08
						c0.23,0.02,0.45-0.02,0.45,0.05c0,0.07,0.02,0.4,0.17,0.04l0.22,0.07l0.22,0.23l0.38-0.07l0.31,0.42l0.07,0.44l0.17-0.08
						l-0.04-0.32l0.27,0.02l0.34,0.18c0.03,0.14,0,0.24,0.02,0.45c0.02,0.22-0.1,0.28,0.11,0.4l0.29,0.09l0.27,0.18
						c0.08,0.02,0.15,0.17,0.4,0.1c0.26-0.07,0.34-0.05,0.48-0.19l0.2-0.2l0.2-0.18l0.15,0.18l0.25-0.03l0.05-0.17v-0.3l0.14,0.14
						l0.33,0.02l0.27-0.22l0.16-0.28l0.33-0.19l0.25-0.22l0.1,0.25h0.29l0.42-0.18l0.48-0.37l0.32-0.3l0.2-0.44l0.14-0.37
						c0.1-0.1,0.03-0.32,0.1-0.56c0.06-0.23,0.08-0.35,0.18-0.37l0.27,0.1l-0.05,0.7l-0.37,0.66c-0.06,0.12-0.18,0.62,0.07,0.62
						c0.25,0,0.42-0.13,0.49-0.3l0.27-0.52l0.06-0.67v-0.94l-0.06-1.04c0.25,0,1.05,0.03,1.39,0.03c0.33,0,0.3-0.1,0.4-0.1
						l0.35-0.14l0.22-0.24c0.03-0.17-0.02-0.45,0.2-0.49c0.22-0.03,0.41-0.05,0.45-0.17l0.27-0.23l0.4,0.49
						c0.15,0.13,0.58,0.91,0.78,1.17c0.21,0.27,0.27,0.5,0.37,0.67l0.15,0.59l0.08,0.42l0.15,0.41l0.15,0.45l0.28,0.33l0.03,0.86
						l0.07,0.47l-0.32,0.18l-0.06,0.8l-0.06,0.32l0.08,0.22l0.3,0.55l0.09,0.72l-0.21,0.24l0.07,0.25l0.36,0.13l0.24-0.05l0.07,0.43
						l0.24,0.32l0.11,0.25l0.09,0.62l-0.02,0.4l0.15,0.28l0.32,0.49l0.37,0.34c0.68,2.07,0.42,0.51,1.01,2.1l0.22,0.3l0.27,0.17
						l0.17-0.13l-0.07-0.34l-0.09-0.42l-0.16-0.17l-0.12-0.4l-0.16-0.26l-0.16-0.46l-0.06-0.53l-0.19-0.29l-0.15-0.32l-0.2-0.31
						l0.02-0.3l0.03-0.3l0.05-0.39l0.33-0.28l0.14-0.32l0.32-0.15l0.26-0.14l0.19,0.3l0.1,0.32c0.1,0.05,0.11,0.19,0.38,0.07
						c0.27-0.12,0.42-0.17,0.49-0.03l0.2,0.44l0.19,0.35l0.3-0.14l0.27-0.14l0.14-0.3L61.84,114.73 M40.44,109.01l-0.07-0.18
						L40.44,109.01 M42.55,109.43l-0.21-0.3l0.24,0.01L42.55,109.43 M43.08,109.64l-0.16-0.46l0.19-0.15l0.07,0.42L43.08,109.64
						 M46.5,110.29l-0.04-0.2L46.5,110.29 M47.82,109.06l-0.34,0.17l-0.25,0.32l-0.21,0.25l-0.42-0.14l-0.1,0.17l-0.34,0.08
						l-0.17,0.21l-0.3-0.09l-0.27,0.07l-0.24-0.1l-0.05-0.24l0.16-0.3l0.29-0.03l0.42,0.17c0.13-0.07,0.23-0.13,0.46-0.1
						c0.24,0.03,0.48-0.05,0.61-0.17l0.57-0.37L47.82,109.06 M56.71,111.97l-0.08-0.17l-0.22-0.11l0.09-0.27l0.1,0.22l0.15,0.07
						l0.12,0.14C56.87,111.92,56.93,112.02,56.71,111.97 M57.11,112.51l-0.09-0.23L57.11,112.51"/>
					<path class="st16" d="M57.11,112.51l-0.09-0.23L57.11,112.51z"/>
					<path class="st16" d="M56.71,111.97l-0.08-0.17l-0.22-0.11l0.09-0.27l0.1,0.22l0.15,0.07l0.12,0.14
						C56.87,111.92,56.93,112.02,56.71,111.97z"/>
					<path class="st16" d="M47.82,109.06l-0.34,0.17l-0.25,0.32l-0.21,0.25l-0.42-0.14l-0.1,0.18l-0.34,0.08l-0.17,0.21l-0.3-0.09
						l-0.27,0.07l-0.24-0.1l-0.05-0.24l0.16-0.3l0.29-0.03l0.42,0.17c0.13-0.07,0.23-0.13,0.46-0.1c0.24,0.03,0.48-0.05,0.61-0.17
						l0.57-0.37L47.82,109.06z"/>
					<path class="st16" d="M46.5,110.29l-0.04-0.2L46.5,110.29z"/>
					<polygon class="st16" points="43.08,109.64 42.92,109.18 43.11,109.03 43.18,109.45 					"/>
					<polygon class="st16" points="42.55,109.43 42.35,109.13 42.59,109.15 					"/>
					<path class="st16" d="M40.44,109.01l-0.07-0.18L40.44,109.01z"/>
					<polyline class="st15" points="39.27,111.78 39.05,111.94 39.29,112.18 39.48,112.02 39.27,111.78 					"/>
					<polygon class="st16" points="39.27,111.78 39.05,111.94 39.29,112.18 39.48,112.02 					"/>
				</g>
			</g>
		</g>
		<g>
			<path class="st0" d="M100.21,87.77V72.31h1.46l3.31,7.82c0.77,1.81,1.36,3.44,1.85,5.02l0.03-0.02
				c-0.12-2.06-0.15-3.95-0.15-6.35v-6.47h1.25v15.46h-1.35l-3.28-7.85c-0.72-1.72-1.41-3.49-1.93-5.16l-0.04,0.02
				c0.08,1.95,0.11,3.81,0.11,6.38v6.61H100.21z"/>
			<path class="st0" d="M114.34,87.77l-0.11-1.4h-0.05c-0.41,0.87-1.21,1.65-2.27,1.65c-1.5,0-2.27-1.58-2.27-3.19
				c0-2.68,1.59-4.15,4.45-4.13v-0.23c0-0.92-0.17-2.57-1.68-2.57c-0.69,0-1.41,0.32-1.93,0.83l-0.31-1.33
				c0.61-0.6,1.5-0.99,2.44-0.99c2.27,0,2.82,2.32,2.82,4.54v4.15c0,0.96,0.03,1.9,0.12,2.66H114.34z M114.15,82.1
				c-1.47-0.04-3.14,0.34-3.14,2.5c0,1.31,0.58,1.92,1.27,1.92c0.96,0,1.58-0.92,1.79-1.86c0.04-0.21,0.08-0.43,0.08-0.64V82.1z"/>
			<path class="st0" d="M119.19,73.48v3.19h1.93v1.54h-1.93v5.99c0,1.38,0.26,2.15,1.01,2.15c0.35,0,0.61-0.07,0.78-0.14l0.06,1.52
				c-0.26,0.16-0.67,0.27-1.19,0.27c-0.63,0-1.13-0.3-1.46-0.85c-0.38-0.59-0.52-1.58-0.52-2.89v-6.06h-1.15v-1.54h1.15v-2.66
				L119.19,73.48z"/>
			<path class="st0" d="M124.14,73.55c0.02,0.69-0.32,1.24-0.86,1.24c-0.48,0-0.81-0.55-0.81-1.24c0-0.71,0.35-1.26,0.84-1.26
				C123.81,72.29,124.14,72.84,124.14,73.55z M122.64,87.77v-11.1h1.35v11.1H122.64z"/>
			<path class="st0" d="M132.93,82.13c0,4.11-1.9,5.9-3.69,5.9c-2.01,0-3.55-2.2-3.55-5.71c0-3.71,1.62-5.89,3.67-5.89
				C131.49,76.42,132.93,78.73,132.93,82.13z M127.05,82.24c0,2.43,0.94,4.26,2.25,4.26c1.29,0,2.25-1.81,2.25-4.31
				c0-1.88-0.63-4.26-2.22-4.26C127.74,77.93,127.05,80.13,127.05,82.24z"/>
			<path class="st0" d="M134.63,79.67c0-1.15-0.02-2.09-0.06-3.01h1.19l0.08,1.84h0.03c0.37-1.05,1.23-2.09,2.45-2.09
				c1.02,0,2.62,0.92,2.62,4.73v6.63h-1.35v-6.4c0-1.79-0.44-3.28-1.71-3.28c-0.89,0-1.58,0.94-1.81,2.07
				c-0.06,0.25-0.09,0.6-0.09,0.94v6.68h-1.34V79.67z"/>
			<path class="st0" d="M147.23,87.77l-0.11-1.4h-0.05c-0.41,0.87-1.21,1.65-2.27,1.65c-1.5,0-2.27-1.58-2.27-3.19
				c0-2.68,1.59-4.15,4.45-4.13v-0.23c0-0.92-0.17-2.57-1.68-2.57c-0.69,0-1.41,0.32-1.93,0.83l-0.31-1.33
				c0.61-0.6,1.5-0.99,2.44-0.99c2.27,0,2.82,2.32,2.82,4.54v4.15c0,0.96,0.03,1.9,0.12,2.66H147.23z M147.03,82.1
				c-1.47-0.04-3.14,0.34-3.14,2.5c0,1.31,0.58,1.92,1.27,1.92c0.96,0,1.58-0.92,1.79-1.86c0.04-0.21,0.08-0.43,0.08-0.64V82.1z"/>
			<path class="st0" d="M150.51,71.48h1.34v16.29h-1.34V71.48z"/>
			<path class="st0" d="M157.42,72.52c0.58-0.18,1.5-0.32,2.44-0.32c1.33,0,2.19,0.34,2.83,1.12c0.54,0.6,0.86,1.51,0.86,2.73
				c0,1.49-0.66,2.8-1.75,3.39v0.05c0.98,0.37,2.13,1.58,2.13,3.88c0,1.33-0.35,2.34-0.87,3.1c-0.72,0.98-1.88,1.45-3.57,1.45
				c-0.92,0-1.62-0.09-2.07-0.18V72.52z M158.75,78.85h1.21c1.41,0,2.23-1.1,2.23-2.59c0-1.81-0.92-2.52-2.27-2.52
				c-0.61,0-0.96,0.07-1.18,0.14V78.85z M158.75,86.26c0.26,0.07,0.64,0.09,1.12,0.09c1.38,0,2.65-0.76,2.65-3
				c0-2.11-1.21-2.98-2.66-2.98h-1.1V86.26z"/>
			<path class="st0" d="M172.44,82.13c0,4.11-1.9,5.9-3.69,5.9c-2.01,0-3.55-2.2-3.55-5.71c0-3.71,1.62-5.89,3.67-5.89
				C171,76.42,172.44,78.73,172.44,82.13z M166.56,82.24c0,2.43,0.94,4.26,2.25,4.26c1.29,0,2.25-1.81,2.25-4.31
				c0-1.88-0.63-4.26-2.22-4.26C167.25,77.93,166.56,80.13,166.56,82.24z"/>
			<path class="st0" d="M178.25,87.77l-0.11-1.4h-0.05c-0.41,0.87-1.21,1.65-2.27,1.65c-1.5,0-2.27-1.58-2.27-3.19
				c0-2.68,1.59-4.15,4.45-4.13v-0.23c0-0.92-0.17-2.57-1.68-2.57c-0.69,0-1.41,0.32-1.93,0.83l-0.31-1.33
				c0.61-0.6,1.5-0.99,2.44-0.99c2.27,0,2.82,2.32,2.82,4.54v4.15c0,0.96,0.03,1.9,0.12,2.66H178.25z M178.05,82.1
				c-1.47-0.04-3.14,0.34-3.14,2.5c0,1.31,0.58,1.92,1.27,1.92c0.96,0,1.58-0.92,1.79-1.86c0.04-0.21,0.08-0.43,0.08-0.64V82.1z"/>
			<path class="st0" d="M181.53,80.13c0-1.31-0.02-2.43-0.06-3.46h1.18l0.05,2.18h0.06c0.34-1.49,1.15-2.43,2.05-2.43
				c0.15,0,0.26,0.02,0.38,0.07v1.9c-0.14-0.05-0.27-0.07-0.46-0.07c-0.95,0-1.62,1.08-1.81,2.59c-0.03,0.28-0.06,0.6-0.06,0.94
				v5.92h-1.33V80.13z"/>
			<path class="st0" d="M192.79,71.48V84.9c0,0.99,0.02,2.11,0.06,2.87h-1.21l-0.06-1.93h-0.03c-0.41,1.24-1.32,2.18-2.52,2.18
				c-1.79,0-3.17-2.27-3.17-5.64c-0.02-3.69,1.52-5.96,3.32-5.96c1.13,0,1.9,0.8,2.24,1.7h0.03v-6.63H192.79z M191.44,81.19
				c0-0.25-0.02-0.59-0.06-0.85c-0.2-1.28-0.94-2.34-1.94-2.34c-1.39,0-2.22,1.83-2.22,4.29c0,2.25,0.73,4.11,2.19,4.11
				c0.9,0,1.73-0.9,1.98-2.41c0.04-0.28,0.06-0.55,0.06-0.87V81.19z"/>
			<path class="st0" d="M204.98,82.13c0,4.11-1.9,5.9-3.69,5.9c-2.01,0-3.55-2.2-3.55-5.71c0-3.71,1.62-5.89,3.67-5.89
				C203.54,76.42,204.98,78.73,204.98,82.13z M199.1,82.24c0,2.43,0.94,4.26,2.25,4.26c1.29,0,2.25-1.81,2.25-4.31
				c0-1.88-0.63-4.26-2.22-4.26C199.79,77.93,199.1,80.13,199.1,82.24z"/>
			<path class="st0" d="M206.82,87.77v-9.56h-1.04v-1.54h1.04v-0.53c0-1.56,0.23-2.98,0.86-3.88c0.5-0.73,1.18-1.03,1.81-1.03
				c0.48,0,0.89,0.16,1.15,0.32l-0.18,1.56c-0.2-0.14-0.47-0.25-0.86-0.25c-1.15,0-1.44,1.51-1.44,3.21v0.6h1.79v1.54h-1.79v9.56
				H206.82z"/>
			<path class="st0" d="M214.45,72.52c0.67-0.21,1.64-0.32,2.56-0.32c1.42,0,2.34,0.39,2.98,1.26c0.52,0.69,0.81,1.74,0.81,2.94
				c0,2.04-0.86,3.39-1.94,3.95v0.07c0.79,0.41,1.27,1.51,1.52,3.12c0.34,2.15,0.58,3.65,0.8,4.24h-1.38
				c-0.17-0.44-0.4-1.77-0.69-3.69c-0.31-2.13-0.86-2.94-2.07-3.01h-1.26v6.7h-1.33V72.52z M215.78,79.56h1.36
				c1.42,0,2.33-1.17,2.33-2.94c0-1.99-0.96-2.87-2.37-2.89c-0.64,0-1.1,0.09-1.32,0.18V79.56z"/>
			<path class="st0" d="M223.45,82.59c0.03,2.73,1.19,3.85,2.54,3.85c0.96,0,1.54-0.25,2.05-0.58l0.23,1.45
				c-0.48,0.32-1.29,0.69-2.47,0.69c-2.28,0-3.64-2.25-3.64-5.59c0-3.35,1.32-5.99,3.47-5.99c2.42,0,3.06,3.19,3.06,5.23
				c0,0.41-0.03,0.73-0.05,0.94H223.45z M227.4,81.14c0.01-1.28-0.35-3.28-1.87-3.28c-1.36,0-1.96,1.88-2.07,3.28H227.4z"/>
			<path class="st0" d="M230.9,76.67l1.46,6.24c0.24,1.01,0.44,1.93,0.6,2.84H233c0.17-0.92,0.38-1.84,0.63-2.84l1.44-6.24h1.41
				l-2.91,11.1h-1.29l-2.82-11.1H230.9z"/>
			<path class="st0" d="M238.34,82.59c0.03,2.73,1.19,3.85,2.54,3.85c0.96,0,1.54-0.25,2.05-0.58l0.23,1.45
				c-0.48,0.32-1.29,0.69-2.47,0.69c-2.28,0-3.64-2.25-3.64-5.59c0-3.35,1.32-5.99,3.47-5.99c2.42,0,3.06,3.19,3.06,5.23
				c0,0.41-0.03,0.73-0.05,0.94H238.34z M242.29,81.14c0.01-1.28-0.35-3.28-1.87-3.28c-1.36,0-1.96,1.88-2.07,3.28H242.29z"/>
			<path class="st0" d="M245.27,79.67c0-1.15-0.02-2.09-0.06-3.01h1.19l0.08,1.84h0.03c0.37-1.05,1.23-2.09,2.45-2.09
				c1.02,0,2.62,0.92,2.62,4.73v6.63h-1.35v-6.4c0-1.79-0.44-3.28-1.71-3.28c-0.89,0-1.58,0.94-1.81,2.07
				c-0.06,0.25-0.09,0.6-0.09,0.94v6.68h-1.35V79.67z"/>
			<path class="st0" d="M259.97,84.74c0,1.15,0.02,2.15,0.06,3.03h-1.19l-0.08-1.81h-0.03c-0.35,0.9-1.13,2.07-2.45,2.07
				c-1.17,0-2.56-0.96-2.56-4.86v-6.49h1.35v6.15c0,2.11,0.43,3.53,1.65,3.53c0.9,0,1.53-0.94,1.77-1.83
				c0.08-0.3,0.12-0.66,0.12-1.03v-6.81h1.35V84.74z"/>
			<path class="st0" d="M262.96,82.59c0.03,2.73,1.19,3.85,2.54,3.85c0.96,0,1.54-0.25,2.05-0.58l0.23,1.45
				c-0.48,0.32-1.29,0.69-2.47,0.69c-2.28,0-3.64-2.25-3.64-5.59c0-3.35,1.32-5.99,3.47-5.99c2.42,0,3.06,3.19,3.06,5.23
				c0,0.41-0.03,0.73-0.05,0.94H262.96z M266.91,81.14c0.01-1.28-0.35-3.28-1.87-3.28c-1.36,0-1.96,1.88-2.07,3.28H266.91z"/>
			<path class="st0" d="M268.83,90.59c0.34-1.35,0.75-3.81,0.92-5.48l1.5-0.23c-0.35,1.95-1.03,4.5-1.46,5.57L268.83,90.59z"/>
			<path class="st0" d="M276.16,72.52c0.58-0.18,1.5-0.32,2.44-0.32c1.33,0,2.19,0.34,2.83,1.12c0.54,0.6,0.86,1.51,0.86,2.73
				c0,1.49-0.66,2.8-1.75,3.39v0.05c0.98,0.37,2.13,1.58,2.13,3.88c0,1.33-0.35,2.34-0.87,3.1c-0.72,0.98-1.88,1.45-3.57,1.45
				c-0.92,0-1.62-0.09-2.07-0.18V72.52z M277.49,78.85h1.21c1.41,0,2.23-1.1,2.23-2.59c0-1.81-0.92-2.52-2.27-2.52
				c-0.61,0-0.96,0.07-1.18,0.14V78.85z M277.49,86.26c0.26,0.07,0.64,0.09,1.12,0.09c1.38,0,2.65-0.76,2.65-3
				c0-2.11-1.21-2.98-2.66-2.98h-1.1V86.26z"/>
			<path class="st0" d="M288.52,87.77l-0.11-1.4h-0.05c-0.41,0.87-1.21,1.65-2.27,1.65c-1.5,0-2.27-1.58-2.27-3.19
				c0-2.68,1.59-4.15,4.45-4.13v-0.23c0-0.92-0.17-2.57-1.68-2.57c-0.69,0-1.41,0.32-1.93,0.83l-0.31-1.33
				c0.61-0.6,1.5-0.99,2.44-0.99c2.27,0,2.82,2.32,2.82,4.54v4.15c0,0.96,0.03,1.9,0.12,2.66H288.52z M288.32,82.1
				c-1.47-0.04-3.14,0.34-3.14,2.5c0,1.31,0.58,1.92,1.27,1.92c0.96,0,1.58-0.92,1.79-1.86c0.04-0.21,0.08-0.43,0.08-0.64V82.1z"/>
			<path class="st0" d="M291.8,79.67c0-1.15-0.02-2.09-0.06-3.01h1.19l0.08,1.84h0.03c0.37-1.05,1.23-2.09,2.45-2.09
				c1.02,0,2.62,0.92,2.62,4.73v6.63h-1.35v-6.4c0-1.79-0.44-3.28-1.71-3.28c-0.89,0-1.58,0.94-1.81,2.07
				c-0.06,0.25-0.09,0.6-0.09,0.94v6.68h-1.35V79.67z"/>
			<path class="st0" d="M306.69,76.67c-0.03,0.8-0.06,1.7-0.06,3.05v6.44c0,2.55-0.34,4.11-1.06,5.07
				c-0.72,1.01-1.76,1.33-2.69,1.33c-0.89,0-1.87-0.32-2.46-0.92l0.34-1.53c0.49,0.46,1.25,0.87,2.17,0.87
				c1.38,0,2.39-1.08,2.39-3.88v-1.24h-0.03c-0.41,1.03-1.21,1.86-2.36,1.86c-1.84,0-3.15-2.34-3.15-5.42
				c0-3.76,1.64-5.89,3.34-5.89c1.29,0,1.99,1.01,2.31,1.93h0.03l0.06-1.67H306.69z M305.29,81.05c0-0.34-0.02-0.64-0.08-0.92
				c-0.25-1.17-0.9-2.13-1.88-2.13c-1.29,0-2.21,1.63-2.21,4.2c0,2.18,0.73,3.99,2.19,3.99c0.83,0,1.58-0.78,1.87-2.07
				c0.08-0.34,0.11-0.73,0.11-1.08V81.05z"/>
			<path class="st0" d="M308.87,71.48h1.35v16.29h-1.35V71.48z"/>
			<path class="st0" d="M316.58,87.77l-0.11-1.4h-0.05c-0.41,0.87-1.21,1.65-2.27,1.65c-1.5,0-2.27-1.58-2.27-3.19
				c0-2.68,1.59-4.15,4.45-4.13v-0.23c0-0.92-0.17-2.57-1.68-2.57c-0.69,0-1.41,0.32-1.93,0.83l-0.31-1.33
				c0.61-0.6,1.5-0.99,2.44-0.99c2.27,0,2.82,2.32,2.82,4.54v4.15c0,0.96,0.03,1.9,0.12,2.66H316.58z M316.38,82.1
				c-1.47-0.04-3.14,0.34-3.14,2.5c0,1.31,0.58,1.92,1.27,1.92c0.96,0,1.58-0.92,1.79-1.86c0.04-0.21,0.08-0.43,0.08-0.64V82.1z"/>
			<path class="st0" d="M326.26,71.48V84.9c0,0.99,0.02,2.11,0.06,2.87h-1.21l-0.06-1.93h-0.03c-0.41,1.24-1.32,2.18-2.52,2.18
				c-1.79,0-3.17-2.27-3.17-5.64c-0.02-3.69,1.52-5.96,3.32-5.96c1.13,0,1.9,0.8,2.24,1.7h0.03v-6.63H326.26z M324.92,81.19
				c0-0.25-0.02-0.59-0.06-0.85c-0.2-1.28-0.94-2.34-1.94-2.34c-1.39,0-2.22,1.83-2.22,4.29c0,2.25,0.73,4.11,2.19,4.11
				c0.9,0,1.73-0.9,1.98-2.41c0.04-0.28,0.06-0.55,0.06-0.87V81.19z"/>
			<path class="st0" d="M329.25,82.59c0.03,2.73,1.19,3.85,2.54,3.85c0.97,0,1.55-0.25,2.05-0.58l0.23,1.45
				c-0.48,0.32-1.29,0.69-2.47,0.69c-2.28,0-3.64-2.25-3.64-5.59c0-3.35,1.32-5.99,3.47-5.99c2.42,0,3.06,3.19,3.06,5.23
				c0,0.41-0.03,0.73-0.05,0.94H329.25z M333.2,81.14c0.01-1.28-0.35-3.28-1.87-3.28c-1.36,0-1.96,1.88-2.07,3.28H333.2z"/>
			<path class="st0" d="M335.99,85.71c0.4,0.39,1.1,0.8,1.78,0.8c0.98,0,1.44-0.73,1.44-1.65c0-0.96-0.38-1.49-1.38-2.04
				c-1.33-0.71-1.96-1.81-1.96-3.14c0-1.79,0.96-3.26,2.55-3.26c0.75,0,1.41,0.32,1.82,0.69l-0.34,1.47
				c-0.29-0.28-0.83-0.64-1.52-0.64c-0.79,0-1.24,0.69-1.24,1.51c0,0.92,0.44,1.33,1.41,1.88c1.29,0.73,1.94,1.7,1.94,3.35
				c0,1.95-1.01,3.33-2.77,3.33c-0.81,0-1.56-0.3-2.08-0.76L335.99,85.71z"/>
			<path class="st0" d="M342.24,71.48h1.35v6.93h0.03c0.21-0.57,0.55-1.08,0.96-1.42c0.4-0.34,0.87-0.57,1.38-0.57
				c0.99,0,2.59,0.92,2.59,4.75v6.61h-1.35v-6.38c0-1.79-0.44-3.3-1.71-3.3c-0.87,0-1.56,0.92-1.81,2.02
				c-0.08,0.28-0.09,0.58-0.09,0.96v6.7h-1.35V71.48z"/>
		</g>
		<g>
			<path class="st0" d="M117.02,110.51h-8.42c-0.15,0-0.36,0.12-0.64,0.36c-0.28,0.24-0.42,0.44-0.42,0.6
				c0,0.44,0.41,0.81,1.22,1.13c0.67,0.24,1.26,0.36,1.76,0.36c0.45,0,1.34-0.24,2.66-0.73c0.58,0.65,1.25,1.42,2.03,2.33
				c-1.5,1.59-2.25,3.86-2.25,6.8c0,1.15,0.34,2.59,1.03,4.32c-0.02,0-0.05,0.01-0.08,0.03c-0.45,0-0.88-0.14-1.27-0.42
				c-0.02-0.14-0.24-1.15-0.65-3.02c-0.27-1.23-0.4-2.26-0.4-3.08c0-1.33,0.28-2.81,0.84-4.44c-0.87,0-1.79-0.14-2.76-0.42
				c-1.23-0.34-2.03-0.79-2.41-1.36c-0.18-0.26-0.44-0.65-0.78-1.15c-0.02-0.02-0.06-0.03-0.11-0.03c-0.4,0-0.85,0.46-1.37,1.39
				c-0.51,0.93-0.77,1.63-0.77,2.11c0,0.69,0.33,1.03,1,1.03c0.29,0,0.84-0.22,1.67-0.67c0.82-0.44,1.24-0.66,1.26-0.66
				c0.07,0,0.14,0.03,0.19,0.09h0.05c0.09,0,0.34,0.28,0.76,0.85c0.79,1.11,1.19,2.19,1.19,3.23c0,1.13-0.36,2.1-1.08,2.92
				c-0.72,0.82-1.59,1.22-2.6,1.22c-2.49,0-4.33-1.9-5.5-5.71c-0.34-1.12-0.51-3.06-0.51-5.8c0.2,0.1,0.45,0.26,0.76,0.48
				c-0.02,0.2-0.03,0.41-0.03,0.63c0,3.5,1.13,6,3.39,7.48c0.43,0.28,0.89,0.42,1.38,0.42c0.71,0,1.38-0.15,2.03-0.45
				c0.81-0.4,1.22-0.95,1.22-1.63c0-0.26-0.07-0.53-0.2-0.82c-0.14-0.28-0.31-0.42-0.53-0.42c-0.11,0-0.46,0.12-1.06,0.36
				c-0.6,0.24-1.07,0.36-1.41,0.36c-0.89,0-1.63-0.39-2.22-1.17c-0.6-0.78-0.89-1.69-0.89-2.71c0-0.7,0.21-1.39,0.62-2.08
				c0.16-0.28,0.6-0.85,1.3-1.72h-5.36l-1.35-1.54h17.42L117.02,110.51z"/>
			<path class="st0" d="M122.46,110.51h-3.39v15.84l-1.3-1.57v-11.33c0-0.89-0.29-1.63-0.85-2.24c-0.57-0.6-1.25-0.85-2.04-0.73
				l-1.38-1.51c0.42-0.06,0.79-0.09,1.14-0.09c1.18,0,2.02,0.37,2.55,1.12c0.31,0.4,0.69,1.36,1.14,2.87
				c-0.36-2.03-0.54-4.24-0.54-6.62l0.52,0.48c0.1,0.97,0.36,1.71,0.78,2.24h2.03L122.46,110.51z"/>
			<path class="st0" d="M138,110.51h-16.95l-1.35-1.54h16.88L138,110.51z M135.08,118.15c0,1.49-0.51,2.73-1.53,3.73
				c-1.02,1-2.22,1.5-3.59,1.5c-0.52,0-1.09-0.11-1.71-0.33c-0.67-0.24-1.18-0.54-1.54-0.91c-1.9-1.87-3.54-5.47-4.93-10.79
				l0.78,0.36c1.08,2.92,1.96,4.92,2.65,5.98c1.35,2.12,2.97,3.17,4.86,3.17c0.88,0,1.74-0.39,2.57-1.16
				c0.83-0.78,1.24-1.65,1.24-2.61c0-0.77-0.2-1.48-0.62-2.15c-0.45-0.75-1-1.12-1.66-1.12c-0.21,0-0.51,0.05-0.89,0.15
				c0.34,0.46,0.51,1.04,0.51,1.72c0,1.43-0.71,2.15-2.11,2.15c-0.72,0-1.29-0.28-1.7-0.85c-0.4-0.5-0.6-1.18-0.6-2.02
				c0-0.93,0.33-1.69,0.98-2.28c0.65-0.59,1.39-0.89,2.22-0.89c1.48,0,2.71,0.65,3.68,1.96C134.62,115,135.08,116.46,135.08,118.15z
				"/>
			<path class="st0" d="M143.37,110.51h-3.79v15.47l-1.33-1.51v-13.97h-1.71l-1.46-1.54h3.33l-0.22-1.15
				c-0.09-0.53-0.48-1.29-1.17-2.28c-1.24-1.84-3.34-2.76-6.28-2.76c-0.67,0-1.38,0.1-2.14,0.3c-1.06,0.26-1.6,0.65-1.6,1.15
				c0,0.47,0.67,0.73,2,0.79c1.88,0.1,3.11,0.25,3.69,0.46c1.34,0.45,2,1.37,2,2.76c0,0.32-0.04,0.63-0.11,0.91h-1.43
				c0.43-0.38,0.65-0.74,0.65-1.06c0-0.67-0.74-1.04-2.22-1.12l-2.22-0.12c-0.74-0.04-1.42-0.3-2.03-0.79
				c-0.7-0.54-1.06-1.2-1.06-1.96c0-0.89,0.66-1.62,1.98-2.21c1.05-0.44,2.05-0.67,3.01-0.67c0.9,0,2.04,0.25,3.41,0.76
				c0.63,0.22,1.37,0.72,2.22,1.51c1.14,1.05,2.03,2.87,2.68,5.47h2.44L143.37,110.51z"/>
			<path class="st0" d="M155.67,110.51h-3.52v15.56c-0.29-0.24-0.68-0.94-1.17-2.09c-0.34-0.79-0.89-1.58-1.63-2.37
				c-0.74-0.79-1.46-1.34-2.16-1.65c-0.53-0.22-1.31-0.36-2.36-0.42l-1.81-2.57c0.97-1.09,2.31-2.38,4.01-3.87
				c-0.54-0.65-1.41-1.05-2.6-1.21c-0.81-0.1-1.52-0.43-2.11-1c-0.56-0.65-1.12-1.29-1.68-1.93h13.63L155.67,110.51z M148.13,123.41
				c0,0.42-0.13,0.8-0.39,1.12s-0.58,0.48-0.96,0.48c-0.42,0-0.77-0.16-1.07-0.48c-0.3-0.32-0.45-0.72-0.45-1.18
				c0-0.42,0.13-0.79,0.39-1.09c0.26-0.3,0.58-0.45,0.96-0.45c0.4,0,0.75,0.16,1.06,0.47C147.98,122.59,148.13,122.97,148.13,123.41
				z M150.76,122.11v-11.6h-4.9c0.83,0.6,1.92,1.78,3.25,3.53c-0.32,0.4-0.79,0.89-1.41,1.48c-0.36,0.34-0.97,1.07-1.81,2.17
				C147.95,118.43,149.58,119.9,150.76,122.11z"/>
			<path class="st0" d="M174.38,110.51h-3.17v15.29c-0.25-0.16-0.58-0.63-0.98-1.42c-0.25-0.54-0.5-1.08-0.76-1.63
				c-0.56-1.12-1.39-2.06-2.48-2.79c-1.09-0.73-2.23-1.14-3.43-1.22l-1.76-2.68c2.7-2.13,5.37-3.65,8.01-4.56v-0.99h-8.26
				l-1.38-1.54H173L174.38,110.51z M169.83,122.08v-8.37c-1.78,0.66-3.52,1.69-5.23,3.08C167.06,117.94,168.8,119.71,169.83,122.08z
				 M167.34,123.02c0,0.4-0.12,0.76-0.37,1.07c-0.24,0.31-0.54,0.47-0.91,0.47c-0.38,0-0.71-0.17-1.01-0.5
				c-0.3-0.33-0.45-0.71-0.45-1.13c0-0.4,0.13-0.75,0.38-1.04c0.26-0.29,0.56-0.44,0.92-0.44c0.38,0,0.71,0.16,1,0.47
				C167.19,122.23,167.34,122.6,167.34,123.02z"/>
			<path class="st0" d="M179.96,110.51h-3.39v15.84l-1.3-1.57v-11.33c0-0.89-0.29-1.63-0.85-2.24c-0.57-0.6-1.25-0.85-2.04-0.73
				l-1.38-1.51c0.42-0.06,0.79-0.09,1.14-0.09c1.17,0,2.02,0.37,2.55,1.12c0.31,0.4,0.69,1.36,1.14,2.87
				c-0.36-2.03-0.54-4.24-0.54-6.62l0.52,0.48c0.1,0.97,0.36,1.71,0.78,2.24h2.03L179.96,110.51z"/>
			<path class="st0" d="M196.02,110.51h-8.42c-0.15,0-0.36,0.12-0.64,0.36c-0.28,0.24-0.42,0.44-0.42,0.6
				c0,0.44,0.41,0.81,1.22,1.13c0.67,0.24,1.26,0.36,1.76,0.36c0.45,0,1.34-0.24,2.66-0.73c0.58,0.65,1.25,1.42,2.03,2.33
				c-1.5,1.59-2.25,3.86-2.25,6.8c0,1.15,0.34,2.59,1.03,4.32c-0.02,0-0.05,0.01-0.08,0.03c-0.45,0-0.88-0.14-1.27-0.42
				c-0.02-0.14-0.24-1.15-0.65-3.02c-0.27-1.23-0.4-2.26-0.4-3.08c0-1.33,0.28-2.81,0.84-4.44c-0.87,0-1.79-0.14-2.76-0.42
				c-1.23-0.34-2.03-0.79-2.41-1.36c-0.18-0.26-0.44-0.65-0.78-1.15c-0.02-0.02-0.06-0.03-0.11-0.03c-0.4,0-0.85,0.46-1.37,1.39
				c-0.51,0.93-0.77,1.63-0.77,2.11c0,0.69,0.33,1.03,1,1.03c0.29,0,0.84-0.22,1.67-0.67c0.82-0.44,1.24-0.66,1.26-0.66
				c0.07,0,0.14,0.03,0.19,0.09h0.05c0.09,0,0.34,0.28,0.76,0.85c0.79,1.11,1.19,2.19,1.19,3.23c0,1.13-0.36,2.1-1.08,2.92
				c-0.72,0.82-1.59,1.22-2.6,1.22c-2.49,0-4.33-1.9-5.5-5.71c-0.34-1.12-0.51-3.06-0.51-5.8c0.2,0.1,0.45,0.26,0.76,0.48
				c-0.02,0.2-0.03,0.41-0.03,0.63c0,3.5,1.13,6,3.39,7.48c0.43,0.28,0.89,0.42,1.38,0.42c0.71,0,1.38-0.15,2.03-0.45
				c0.81-0.4,1.22-0.95,1.22-1.63c0-0.26-0.07-0.53-0.2-0.82c-0.14-0.28-0.31-0.42-0.53-0.42c-0.11,0-0.46,0.12-1.06,0.36
				c-0.6,0.24-1.07,0.36-1.41,0.36c-0.89,0-1.63-0.39-2.22-1.17c-0.6-0.78-0.89-1.69-0.89-2.71c0-0.7,0.21-1.39,0.62-2.08
				c0.16-0.28,0.6-0.85,1.3-1.72h-5.36l-1.35-1.54h17.42L196.02,110.51z"/>
			<path class="st0" d="M210.3,110.51h-1.03c-0.89,0-1.53,0.01-1.95,0.02c-0.13,0-0.31,0.02-0.54,0.05c-0.02,0-0.03,0.01-0.03,0.02
				c0.25,0.24,0.41,0.56,0.49,0.97c0.04,0.22,0.05,0.45,0.05,0.69c0,0.93-0.2,1.71-0.6,2.36c-0.45,0.7-1.07,1.06-1.87,1.06
				c-0.76,0-1.54-0.41-2.36-1.24c-0.81-0.83-1.24-1.66-1.27-2.51c-0.11,0.73-0.43,1.53-0.97,2.42c-0.61,1.05-1.2,1.57-1.76,1.57
				c-0.36,0-0.84-0.26-1.42-0.77c-0.59-0.51-0.88-0.96-0.88-1.35c0-0.1,0.06-0.28,0.19-0.54c0.13-0.26,0.22-0.41,0.27-0.45
				c0.56,0.67,0.94,1,1.14,1c0.42,0,0.84-0.36,1.27-1.08c0.4-0.66,0.6-1.24,0.6-1.74c0-0.32-0.12-0.48-0.35-0.48h-4.63l-1.33-1.54
				h15.58L210.3,110.51z M206.15,112.12c0-0.28-0.08-0.6-0.24-0.96c-0.18-0.44-0.38-0.66-0.6-0.66h-3.44c0,0.72,0.25,1.39,0.76,2.02
				c0.5,0.63,1.08,0.94,1.73,0.94C205.55,113.47,206.15,113.02,206.15,112.12z"/>
			<path class="st0" d="M206.8,124.8l-0.9-0.45c-0.83-2.32-2.2-3.48-4.12-3.48l-0.92-2.75c0.52-0.46,1.32-1.05,2.38-1.75
				c1.15-0.76,1.96-1.33,2.41-1.69c0.23-0.24,0.61-0.59,1.14-1.06V124.8z M205.61,121.96v-5.05c-0.71,0.48-1.65,1.21-2.84,2.18
				c0.58,0.14,1.12,0.52,1.63,1.15C204.44,120.3,204.85,120.87,205.61,121.96z"/>
			<path class="st0" d="M224.68,110.48c-1.73,0.18-3.15,1.17-4.25,2.96c-0.99,1.61-1.49,3.44-1.49,5.47c0,1.31,0.24,2.46,0.71,3.45
				c0.58,1.25,1.39,1.87,2.44,1.87c0.04,0,0.06-0.01,0.06-0.03v-0.03c-0.53-0.32-0.79-0.77-0.79-1.33c0-0.72,0.18-1.22,0.54-1.48
				c0.29-0.2,0.76-0.3,1.41-0.3c0.33,0,0.62,0.2,0.89,0.6c0.27,0.4,0.41,0.8,0.41,1.18c0,0.73-0.23,1.34-0.69,1.84
				c-0.46,0.5-1.02,0.76-1.67,0.76c-1.48,0-2.65-0.87-3.52-2.6c-0.74-1.43-1.11-3.04-1.11-4.83c0-0.44,0.03-0.95,0.08-1.51
				c0.16-1.71,0.75-3.34,1.76-4.9c1.15-1.75,2.44-2.63,3.87-2.63L224.68,110.48z"/>
			<path class="st0" d="M237.82,110.51h-3.33v15.59c-0.16-0.26-0.4-0.64-0.7-1.15c-0.11-0.3-0.29-0.73-0.54-1.3
				c-0.67-1.35-1.57-2.45-2.7-3.3c-1.13-0.86-2.37-1.34-3.72-1.46l-1.73-2.74c2.62-2.07,5.31-3.61,8.07-4.61v-1.03h-8.75l-1.33-1.54
				h13.4L237.82,110.51z M233.16,121.87v-7.95c-1.61,0.63-3.35,1.63-5.23,3.02C230.26,118.08,232,119.72,233.16,121.87z"/>
			<path class="st0" d="M243.29,110.51h-3.39v15.84l-1.3-1.57v-11.33c0-0.89-0.29-1.63-0.85-2.24c-0.57-0.6-1.25-0.85-2.04-0.73
				l-1.38-1.51c0.42-0.06,0.79-0.09,1.14-0.09c1.18,0,2.02,0.37,2.55,1.12c0.31,0.4,0.69,1.36,1.14,2.87
				c-0.36-2.03-0.54-4.24-0.54-6.62l0.52,0.48c0.1,0.97,0.36,1.71,0.78,2.24h2.03L243.29,110.51z"/>
			<path class="st0" d="M257.31,110.51h-8.64v5.83c0.49,0,1.04-0.28,1.65-0.85c0.54-0.48,0.96-1,1.27-1.54
				c0.18-0.32,0.38-0.59,0.6-0.81c0.69,0.32,1.27,1.05,1.76,2.18c0.45,1.01,0.68,1.98,0.68,2.9c0,1.77-0.4,3.16-1.19,4.17
				c-0.85,1.07-2.06,1.6-3.63,1.6c-1.55,0-2.82-0.64-3.79-1.9c-1.61-2.1-2.58-4.91-2.93-8.43c-0.03-0.5-0.1-1.26-0.19-2.27
				l0.78,0.48c0.18,2.32,0.71,4.35,1.57,6.11c1.12,2.26,2.58,3.39,4.39,3.39c1.01,0,1.92-0.34,2.73-1.03c0.87-0.77,1.3-1.7,1.3-2.81
				c0-0.66-0.26-1.3-0.76-1.9c-0.16,0.57-0.68,1.21-1.56,1.93c-0.88,0.72-1.59,1.09-2.15,1.09c-0.92,0-1.54-0.65-1.87-1.96
				c-0.02-0.08-0.02-2.14,0-6.17h-5.34l-1.35-1.54h15.3L257.31,110.51z"/>
			<path class="st0" d="M258.07,101.47l-5.77,6.25h-3.25l7.83-6.44L258.07,101.47z"/>
			<path class="st0" d="M261.62,125.74c0,0.85-0.32,1.72-0.98,2.62c-0.65,0.9-1.34,1.5-2.09,1.8l-0.24-0.6
				c0.52-0.26,1.01-0.68,1.47-1.25c0.46-0.57,0.69-1.14,0.69-1.71c0-0.42-0.1-0.64-0.3-0.64c-0.09,0-0.24,0.02-0.43,0.06
				c-0.2,0.04-0.35,0.06-0.46,0.06c-0.42,0-0.76-0.14-1.03-0.41c-0.27-0.27-0.41-0.63-0.41-1.07c0-1.21,0.54-1.81,1.63-1.81
				C260.91,122.78,261.62,123.77,261.62,125.74z"/>
			<path class="st0" d="M283.56,110.51h-3.33v15.59c-0.16-0.26-0.4-0.64-0.7-1.15c-0.11-0.3-0.29-0.73-0.54-1.3
				c-0.67-1.35-1.57-2.45-2.7-3.3c-1.13-0.86-2.37-1.34-3.72-1.46l-1.73-2.74c2.62-2.07,5.31-3.61,8.07-4.61v-1.03h-8.75l-1.33-1.54
				h13.4L283.56,110.51z M278.9,121.87v-7.95c-1.61,0.63-3.35,1.63-5.23,3.02C276.01,118.08,277.75,119.72,278.9,121.87z"/>
			<path class="st0" d="M289.03,110.51h-3.39v15.84l-1.3-1.57v-11.33c0-0.89-0.29-1.63-0.85-2.24c-0.57-0.6-1.25-0.85-2.04-0.73
				l-1.38-1.51c0.42-0.06,0.79-0.09,1.14-0.09c1.18,0,2.02,0.37,2.55,1.12c0.31,0.4,0.69,1.36,1.14,2.87
				c-0.36-2.03-0.54-4.24-0.54-6.62l0.52,0.48c0.1,0.97,0.36,1.71,0.78,2.24h2.03L289.03,110.51z"/>
			<path class="st0" d="M294.61,113.35c0,0.62-0.19,1.28-0.58,1.96c-0.39,0.69-0.84,1.13-1.34,1.33c-0.2,0.08-0.51,0.12-0.95,0.12
				c-0.85,0-1.58-0.35-2.19-1.06c-0.61-0.71-0.92-1.53-0.92-2.48c0-0.85,0.31-1.63,0.92-2.36c0.61-0.72,1.3-1.09,2.06-1.09
				c0.83,0,1.54,0.36,2.13,1.07S294.61,112.4,294.61,113.35z M296.96,127.58c-2.15-2.32-4.65-4.57-7.5-6.77v-3.42
				c2.04,1.81,4.54,4.77,7.5,8.89V127.58z M293.23,112.56c0-0.83-0.3-1.24-0.89-1.24s-1.13,0.31-1.61,0.92
				c-0.48,0.61-0.72,1.26-0.72,1.92c0,0.75,0.26,1.12,0.78,1.12c0.32,0,0.76-0.2,1.31-0.59c0.55-0.39,0.89-0.76,1.02-1.1
				C293.19,113.41,293.23,113.07,293.23,112.56z"/>
			<path class="st0" d="M311.08,110.48h-3.36v15.5l-1.38-1.48v-8.37c0-0.49-0.18-0.94-0.54-1.35c-0.37-0.41-0.77-0.62-1.2-0.62
				c-0.73,0-1.09,0.47-1.09,1.41c0,0.1,0.04,0.45,0.14,1.04l-0.57,0.25v-0.06c0-0.1-0.09-0.32-0.27-0.66
				c-0.38-0.68-0.74-1.17-1.08-1.45c-0.42-0.34-0.95-0.51-1.6-0.51c-0.65,0-1.23,0.26-1.72,0.77c-0.5,0.51-0.75,1.13-0.75,1.86
				c0,1.21,0.6,1.92,1.79,2.15c-0.27-0.38-0.41-0.78-0.41-1.18c0-0.48,0.15-0.88,0.45-1.18c0.3-0.3,0.66-0.45,1.1-0.45
				c0.5,0,0.92,0.27,1.23,0.8c0.32,0.54,0.48,1.1,0.48,1.71c0,0.53-0.25,0.96-0.73,1.3c-0.41,0.3-0.87,0.45-1.35,0.45
				c-1.18,0-2.1-0.39-2.79-1.16c-0.69-0.77-1.03-1.82-1.03-3.13c0-1.07,0.26-2,0.78-2.81c0.58-0.91,1.32-1.36,2.24-1.36
				c1.08,0,2.04,0.63,2.89,1.87c0-0.33,0.19-0.71,0.57-1.15s0.71-0.66,1-0.66c1.13,0,1.96,0.89,2.49,2.66v-4.17h-10.48l-1.4-1.54
				h15.22L311.08,110.48z"/>
			<path class="st0" d="M316.63,110.51h-3.39v15.84l-1.3-1.57v-11.33c0-0.89-0.29-1.63-0.85-2.24c-0.57-0.6-1.25-0.85-2.04-0.73
				l-1.38-1.51c0.42-0.06,0.79-0.09,1.14-0.09c1.18,0,2.02,0.37,2.55,1.12c0.31,0.4,0.69,1.36,1.14,2.87
				c-0.36-2.03-0.54-4.24-0.54-6.62l0.52,0.48c0.1,0.97,0.36,1.71,0.78,2.24h2.03L316.63,110.51z"/>
			<path class="st0" d="M324.65,110.45c-0.65,0.02-1.39,0.21-2.2,0.57c-3.05,1.33-4.57,4.19-4.57,8.58c0,2.12,0.74,3.64,2.21,4.56
				c0.13,0.08,0.32,0.12,0.57,0.12c0.26,0,0.37-0.04,0.33-0.12c-0.16-0.02-0.34-0.24-0.53-0.65c-0.19-0.41-0.28-0.73-0.28-0.95
				c0-0.44,0.17-0.84,0.53-1.18c0.35-0.34,0.73-0.52,1.12-0.52c0.32,0,0.58,0.11,0.76,0.33c0.58,0.32,0.87,0.88,0.87,1.66
				c0,0.7-0.24,1.29-0.72,1.77c-0.48,0.47-1.04,0.71-1.69,0.71c-1.45,0-2.6-0.85-3.47-2.53c-0.72-1.43-1.08-3.02-1.08-4.77
				c0-2.63,0.91-5.15,2.74-7.54h-4.09l-1.35-1.54h9.53L324.65,110.45z"/>
			<path class="st0" d="M337.13,110.51h-10.99v6.35c0.27-0.16,0.67-0.51,1.19-1.06c0.71-0.73,1.1-1.13,1.19-1.21
				c0.96-0.87,2.19-1.62,3.69-2.27l2.36,1.96c-1.21,2.62-1.81,5-1.81,7.13c0,0.16,0.01,0.4,0.04,0.71c0.03,0.31,0.04,0.55,0.04,0.71
				c0,0.3,0.14,1.36,0.41,3.17l-0.9-0.51c-0.52-2.68-0.78-4.75-0.78-6.2c0-1.37,0.13-2.69,0.38-3.96c-1.21,0.48-2.3,1.25-3.28,2.3
				c-0.97,1.05-1.7,2.24-2.16,3.57l-1.82-2.08v-8.62h-1.38l-1.38-1.54h13.84L337.13,110.51z"/>
			<path class="st0" d="M350.92,110.54h-3.09v15.41l-1.38-1.53l0.08-9.39c0-0.56-0.31-1.29-0.92-2.2c-0.61-0.9-1.17-1.35-1.65-1.35
				c-0.29,0-0.59,0.11-0.89,0.33c-0.36,0.26-0.54,0.54-0.54,0.85c0.67,0.54,1.11,0.96,1.33,1.24c0.47,0.54,0.71,1.11,0.71,1.69
				c0,1.33-0.58,1.99-1.74,1.99c-0.79,0-1.47-0.54-2.03-1.63c-0.18,0.46-0.48,0.88-0.9,1.24c-0.42,0.36-0.84,0.54-1.27,0.54
				c-0.49,0-0.89-0.22-1.19-0.66c-0.31-0.44-0.46-0.96-0.46-1.54c0-0.56,0.28-1.23,0.83-1.99c0.55-0.77,1.05-1.18,1.5-1.24
				c-0.32-0.93-0.8-1.49-1.44-1.69c-0.27-0.08-1-0.11-2.19-0.09l-1.35-1.51h2.79c0.71,0,1.35,0.28,1.95,0.83
				c0.6,0.56,0.97,1.21,1.11,1.98c0.54-1.36,1.44-2.25,2.71-2.66c0.29-0.1,0.48-0.15,0.6-0.15c0.43,0,1.12,0.73,2.06,2.18
				c0.87,1.31,1.37,2.26,1.52,2.84c-0.29-3.26-0.46-5.84-0.52-7.74c0.38,0.37,0.66,0.67,0.84,0.92c0.07,0.35,0.14,0.68,0.22,1.01
				c0.13,0.51,0.4,0.77,0.81,0.79h1.17L350.92,110.54z"/>
		</g>
		<rect x="99.92" y="96.6" class="st17" width="248.37" height="1.1"/>
	</g>
</g>
</svg>
