<?xml version="1.0" encoding="utf-8"?>
<!-- Generator: Adobe Illustrator 23.0.3, SVG Export Plug-In . SVG Version: 6.00 Build 0)  -->
<svg version="1.1" id="Layer_1" xmlns="http://www.w3.org/2000/svg" xmlns:xlink="http://www.w3.org/1999/xlink" x="0px" y="0px"
	 viewBox="0 0 133.52 134.3" style="enable-background:new 0 0 133.52 134.3;" xml:space="preserve">
<style type="text/css">
	.st0{fill:#FFFFFF;}
	.st1{fill:#B21E8C;}
	.st2{fill:#0087CE;}
	.st3{fill:#00A451;}
	.st4{fill:#F5911E;}
	.st5{fill:#ED4824;}
	.st6{fill:#F4F5F5;}
	.st7{fill:#04974A;}
	.st8{fill:none;stroke:#04974A;stroke-width:0.13;}
	.st9{fill:#EB2227;}
	.st10{fill:none;stroke:#EB2227;stroke-width:0.13;}
	.st11{fill:#FBED23;}
	.st12{fill:none;stroke:#FBED23;stroke-width:0.13;}
	.st13{fill:#414042;}
	.st14{fill:#6D6E71;}
	.st15{fill:#00448A;}
	.st16{fill:url(#Triangle_Top_Light_1_);}
	.st17{fill:#050505;}
	.st18{fill:url(#SVGID_1_);}
	.st19{fill:#A6D2E5;}
	.st20{fill:#009FC4;}
	.st21{fill:#507FB7;}
	.st22{fill:url(#Sphere_Top_1_);}
	.st23{opacity:0.25;}
	.st24{fill:#ED9A2E;}
	.st25{opacity:0.2;}
	.st26{fill:#000038;}
	.st27{fill:#0071BC;}
	.st28{fill:none;stroke:#C6C6C6;stroke-width:3;stroke-miterlimit:10;}
	.st29{opacity:0.17;fill:#FFFFFF;}
	.st30{fill:none;stroke:#C6C6C6;stroke-width:2;stroke-miterlimit:10;}
	.st31{fill:#C6C6C6;}
	.st32{fill:url(#SVGID_2_);}
	.st33{fill:#07A6E5;}
	.st34{fill:url(#SVGID_3_);}
	.st35{fill:#0068FF;}
	.st36{fill:url(#SVGID_4_);}
	.st37{fill:#00BC3F;}
	.st38{fill:url(#SVGID_5_);}
	.st39{fill:#7A00E5;}
	.st40{fill:url(#SVGID_6_);}
	.st41{fill:#D300C9;}
	.st42{fill:url(#SVGID_7_);}
	.st43{opacity:0.2;fill:#606060;}
	.st44{fill:none;stroke:#F7931E;stroke-width:5;stroke-miterlimit:10;}
	.st45{fill-rule:evenodd;clip-rule:evenodd;fill:#000038;}
	.st46{clip-path:url(#SVGID_13_);}
	.st47{fill:#EEEEEE;}
	.st48{opacity:0.25;fill:#ED9A2E;}
	.st49{opacity:0.2;fill:#000038;}
	.st50{opacity:0.25;fill:#0071BC;}
</style>
<g>
	<circle class="st50" cx="66.76" cy="67.15" r="64.5"/>
	<g>
		<path class="st27" d="M66.8,78.59c3.06,1.7,6.03,2.5,9.25,2.17c1.12-0.11,2.24-0.29,3.36-0.41c1.77-0.19,3.22-1,4.65-2.03
			c1.19-0.87,2.57-1.49,3.92-2.12c0.41-0.19,1-0.13,1.47-0.02c1.88,0.44,2.26,1.51,1.12,3.07c0.88,1.12,0.92,2.08-0.24,2.94
			c-2.58,1.92-5.17,3.9-7.99,5.41c-1.54,0.82-3.56,0.76-5.37,1.06c-2.39,0.4-4.79,0.8-7.19,1.13c-1.94,0.27-3.82,0.03-5.63-0.84
			c-3.88-1.87-7.78-3.71-11.72-5.46c-1.28-0.57-2.69-0.86-4.06-1.18c-0.81-0.19-1.29-0.5-1.28-1.39c0.01-3.27,0.01-6.54-0.01-9.81
			c-0.01-0.81,0.36-1.21,1.11-1.43c6.56-1.86,13-2.36,19.24,1.22c0.9,0.52,2.05,0.69,3.1,0.87c2.84,0.47,5.7,0.86,8.55,1.29
			c0.25,0.04,0.48,0.13,0.72,0.21c1.66,0.56,2.68,1.78,2.43,2.92c-0.42,1.93-1.92,2.94-3.84,2.82c-3.59-0.23-7.19-0.34-10.78-0.49
			C67.45,78.5,67.28,78.54,66.8,78.59z"/>
		<path class="st27" d="M88.95,46.06c0.17,0.27,0.29,0.43,0.4,0.61c1.68,2.76,1.7,2.78-0.71,4.87c-0.59,0.51-0.65,1-0.39,1.66
			c0.25,0.66,0.11,1.6,1.22,1.6c0.08,0,0.16,0.04,0.25,0.05c3.08,0.56,3.11,0.56,2.88,3.65c-0.03,0.38-0.5,0.85-0.89,1.06
			c-0.42,0.23-0.97,0.21-1.47,0.29c-1.65,0.26-2.07,0.66-2.1,2.31c-0.01,0.36,0.33,0.81,0.63,1.08c2.25,2.03,2.27,2.02,0.75,4.62
			c-0.15,0.25-0.32,0.48-0.55,0.82c-0.98-0.34-1.99-0.6-2.92-1.04c-0.76-0.36-1.17-0.04-1.6,0.47c-0.47,0.54-1.23,0.93-0.75,1.89
			c0.35,0.71,0.62,1.47,0.8,2.24c0.07,0.31-0.11,0.85-0.35,1.02c-0.35,0.24-1.1,0.47-1.27,0.3c-2.01-1.97-4.64-2.21-7.18-2.63
			c-1.81-0.3-3.67-0.36-5.48-0.68c-1.05-0.18-2.11-0.54-3.06-1.03c-3-1.54-6.15-2.43-9.52-2.38c-0.95,0.01-1.29-0.58-1.47-1.23
			c-0.09-0.31,0.31-0.8,0.58-1.14c0.25-0.32,0.62-0.55,0.95-0.82c1.18-0.97,1.39-1.9,0.67-3.18c-0.1-0.19-0.36-0.32-0.57-0.41
			c-0.23-0.1-0.49-0.12-0.73-0.16c-3.04-0.53-3.16-0.68-2.72-3.77c0.05-0.34,0.45-0.75,0.78-0.91c0.44-0.21,0.97-0.22,1.47-0.3
			c1.74-0.26,2.12-0.64,2.21-2.36c0.01-0.22-0.09-0.47-0.21-0.67c-0.1-0.17-0.31-0.27-0.47-0.41c-2.31-1.99-2.29-1.97-0.75-4.58
			c0.39-0.67,0.75-0.92,1.48-0.53c0.4,0.22,0.86,0.32,1.29,0.48c1.62,0.57,2,0.46,2.99-0.94c0.16-0.22,0.19-0.62,0.12-0.9
			c-0.18-0.64-0.4-1.29-0.7-1.88c-0.52-1.02-0.17-1.54,0.78-2.05c2.32-1.25,2.29-1.29,4.04,0.75c0.44,0.52,0.74,1.19,1.71,0.8
			c0.87-0.35,1.71-0.37,1.9-1.67c0.42-2.79,0.52-2.73,3.39-2.73c0.84,0,1.22,0.26,1.31,1.08c0.06,0.62,0.29,1.23,0.32,1.85
			c0.04,0.75,0.4,0.98,1.07,1.28c1.28,0.56,1.95,0.1,2.7-0.89c1.38-1.83,1.44-1.79,3.41-0.68c1.6,0.9,1.63,0.92,0.94,2.68
			c-0.48,1.21-0.99,2.39,0.52,3.22c0.4,0.22,0.96,0.4,1.38,0.3C86.97,46.86,87.9,46.44,88.95,46.06z M64.36,57.36
			c-0.04,4.96,4.01,9.09,8.94,9.12c5.08,0.03,9.2-4.01,9.27-9.1c0.07-4.89-4.06-9.06-9-9.09C68.39,48.27,64.4,52.19,64.36,57.36z"/>
		<path class="st27" d="M39.58,75.95c0-2.39,0.03-4.78-0.01-7.17c-0.02-1.07,0.43-1.55,1.49-1.53c1.01,0.02,2.01,0.02,3.02,0.01
			c0.88-0.01,1.32,0.38,1.32,1.28c-0.01,4.95-0.01,9.89,0,14.84c0,0.91-0.44,1.28-1.32,1.26c-1.01-0.03-2.01-0.04-3.02,0
			c-1.08,0.03-1.5-0.46-1.49-1.52C39.6,80.73,39.58,78.34,39.58,75.95z"/>
	</g>
</g>
</svg>
