<?xml version="1.0" encoding="utf-8"?>
<!-- Generator: Adobe Illustrator 23.0.3, SVG Export Plug-In . SVG Version: 6.00 Build 0)  -->
<svg version="1.1" id="Layer_1" xmlns="http://www.w3.org/2000/svg" xmlns:xlink="http://www.w3.org/1999/xlink" x="0px" y="0px"
	 viewBox="0 0 252 110" style="enable-background:new 0 0 252 110;" xml:space="preserve">
<style type="text/css">
	.st0{fill:#F4F5F5;}
	.st1{fill:#04974A;}
	.st2{fill:none;stroke:#04974A;stroke-width:0.13;}
	.st3{fill:#EB2227;}
	.st4{fill:none;stroke:#EB2227;stroke-width:0.13;}
	.st5{fill:#FBED23;}
	.st6{fill:none;stroke:#FBED23;stroke-width:0.13;}
	.st7{fill:#FFFFFF;}
	.st8{fill:#414042;}
	.st9{fill:#B21E8C;}
	.st10{fill:#0087CE;}
	.st11{fill:#00A451;}
	.st12{fill:#F5911E;}
	.st13{fill:#ED4824;}
</style>
<g>
	<g>
		<path class="st7" d="M174.24,59.23l0.98,4.12h0.18l0.98-4.12l11.16-36.61h6.32l-16.05,49.63h-5.01l-16.05-49.63h6.35L174.24,59.23
			z"/>
		<path class="st7" d="M208.98,59.47h-16.26l-3.86,12.78h-5.96l15.58-49.63h5.01l15.25,49.63h-5.96L208.98,59.47z M194.41,53.84
			h12.91l-6.29-21.31h-0.18L194.41,53.84z"/>
		<path class="st7" d="M242.59,27.9h-14.24v44.35h-5.84V27.9h-14.06v-5.28h34.15V27.9z"/>
	</g>
	<path class="st9" d="M24.32,34.27c-4.01,0-7.46,2.37-9.18,6.27v18.69c1.72,3.9,5.17,6.27,9.18,6.27c6.21,0,8.79-5.66,8.79-15.62
		C33.11,39.93,30.53,34.27,24.32,34.27L24.32,34.27z M15.14,88.02l-5.73,2.96v-60.8l5.73-2.88v5.45c2.3-2.68,5.54-4.43,9.18-4.43
		c9.75,0,14.53,7.7,14.53,21.58c0,13.87-4.78,21.57-14.53,21.57c-3.64,0-6.78-1.64-9.18-4.43V88.02L15.14,88.02z"/>
	<path class="st10" d="M50.12,27.3v7.71c2.96-4.12,9.16-7.19,11.95-7.19v6.99c-3.25,0-9.47,2.66-11.95,5.74v26.93l-5.74,2.96V30.18
		L50.12,27.3L50.12,27.3z"/>
	<path class="st11" d="M70.85,27.3v40.18l-5.73,2.96V30.18L70.85,27.3L70.85,27.3z M65.12,19.57v-7.82l5.73-2.96v7.79L65.12,19.57
		L65.12,19.57z"/>
	<path class="st12" d="M76.88,59.54c2.77,2.88,6.49,6.37,11.75,6.37c3.53,0,6.6-1.43,6.6-6.16c0-4.31-3.73-5.96-6.98-7.19
		c-5.15-2.06-11.47-4.83-11.47-13.15c0-7,5.17-11.11,11.94-11.11c3.92,0,7.08,1.04,9.46,2.48v6.46c-2.57-2.06-5.73-3.38-9.46-3.38
		c-3.34,0-6.59,1.54-6.59,5.55c0,3.6,2.97,5.13,6.12,6.36c5.16,2.05,12.34,5.24,12.34,13.97c0,7.18-4.4,11.7-11.95,11.7
		c-5.92,0-9.66-2.87-11.75-4.72V59.54L76.88,59.54z"/>
	<path class="st13" d="M111.28,67.47l-5.73,2.96V30.18l5.73-2.88v4.93c3.05-1.95,7.45-3.91,9.84-3.91c4.96,0,7.84,2.05,9.36,5.14
		c2.77-2.26,8.7-5.14,11.56-5.14c9.66,0,11.09,7.7,11.09,15.21c0,3.7,0,24.94,0,24.94l-5.73,1.97c0,0,0-22.29,0-26.19
		c0-5.04-0.67-9.97-5.83-9.97c-2.97,0-6.79,2.05-9.65,4.21c0.2,1.65,0.28,3.39,0.28,5.04c0,3.7,0,23.95,0,23.95l-5.73,2.96
		c0,0,0-22.29,0-26.19c0-5.04-0.67-9.97-5.84-9.97c-2.86,0-6.49,1.95-9.35,4.01V67.47L111.28,67.47z"/>
	<g>
		<path class="st7" d="M81.58,91.93l0.31,0.48c-0.98,0.95-1.7,1.58-2.18,1.89c-0.66,0.43-1.18,0.64-1.55,0.64
			c-0.18,0-0.32-0.06-0.43-0.17c-0.11-0.11-0.16-0.24-0.16-0.38c0-0.14,0.04-0.38,0.12-0.7l0.38-1.54c-0.88,1.08-1.61,1.82-2.19,2.2
			c-0.58,0.39-1.11,0.58-1.58,0.58c-0.39,0-0.71-0.2-0.97-0.59c-0.26-0.39-0.39-0.96-0.39-1.72c0-1.19,0.36-2.56,1.07-4.11
			c0.71-1.55,1.5-2.69,2.38-3.44c0.87-0.74,1.67-1.11,2.39-1.11c0.16,0,0.4,0.03,0.72,0.09c0.34-1.63,0.67-2.82,0.99-3.57
			c0.31-0.75,0.72-1.4,1.21-1.94c0.5-0.54,1.06-0.96,1.7-1.26c0.64-0.3,1.23-0.45,1.79-0.45c0.29,0,0.53,0.09,0.7,0.26
			c0.18,0.18,0.26,0.4,0.26,0.67c0,0.26-0.08,0.47-0.24,0.63c-0.16,0.16-0.38,0.25-0.66,0.25c-0.18,0-0.52-0.04-1.02-0.13
			s-0.84-0.13-1.02-0.13c-0.26,0-0.48,0.09-0.67,0.27c-0.19,0.18-0.38,0.57-0.55,1.16c-0.12,0.38-0.38,1.58-0.8,3.61l-1.55,7.6
			c-0.18,0.9-0.27,1.49-0.27,1.79c0,0.32,0.11,0.48,0.32,0.48c0.13,0,0.28-0.05,0.46-0.16C80.39,92.97,80.87,92.57,81.58,91.93z
			 M79.26,85.43c-0.58-0.15-1-0.23-1.24-0.23c-0.49,0-0.97,0.22-1.43,0.66c-0.47,0.44-0.92,1.3-1.35,2.56
			c-0.43,1.27-0.65,2.37-0.65,3.31c0,0.43,0.1,0.78,0.3,1.05c0.2,0.27,0.43,0.41,0.68,0.41c0.31,0,0.66-0.16,1.05-0.47
			c0.56-0.46,1.01-1.02,1.34-1.69c0.2-0.42,0.46-1.45,0.8-3.09L79.26,85.43z"/>
		<path class="st7" d="M83.37,86.88l-0.48-0.43c0.73-0.92,1.39-1.58,2-1.97c0.6-0.39,1.11-0.58,1.54-0.58
			c0.23,0,0.41,0.06,0.54,0.18c0.12,0.12,0.19,0.28,0.19,0.48c0,0.24-0.24,1.27-0.71,3.09c-0.77,2.98-1.16,4.77-1.16,5.38
			c0,0.12,0.03,0.22,0.08,0.3s0.11,0.12,0.16,0.12c0.23,0,0.83-0.52,1.8-1.56l0.43,0.48c-1,1.08-1.73,1.77-2.19,2.07
			c-0.46,0.3-0.84,0.45-1.13,0.45c-0.26,0-0.46-0.09-0.61-0.28c-0.15-0.18-0.22-0.44-0.22-0.77c0-1.05,0.55-3.61,1.64-7.68
			c0.05-0.19,0.08-0.36,0.08-0.52c0-0.17-0.07-0.25-0.2-0.25c-0.15,0-0.31,0.07-0.5,0.2C84.42,85.73,84.01,86.15,83.37,86.88z
			 M87.67,78.55c0.23,0,0.41,0.09,0.56,0.26c0.15,0.17,0.22,0.39,0.22,0.66c0,0.37-0.11,0.69-0.33,0.97
			c-0.22,0.28-0.47,0.42-0.75,0.42c-0.22,0-0.4-0.09-0.55-0.26c-0.15-0.18-0.22-0.41-0.22-0.69c0-0.38,0.11-0.7,0.32-0.96
			C87.13,78.68,87.38,78.55,87.67,78.55z"/>
		<path class="st7" d="M95.76,83.87l0.88-0.23c-0.53,1.96-1.02,3.93-1.46,5.9c-0.32,1.41-0.54,2.58-0.67,3.52
			c-0.07,0.47-0.1,1.07-0.11,1.79c-0.01,1.21-0.13,2.18-0.35,2.92c-0.31,1.03-0.88,1.86-1.71,2.49c-0.84,0.63-1.83,0.94-2.97,0.94
			c-0.99,0-1.76-0.27-2.33-0.8c-0.57-0.53-0.85-1.14-0.85-1.83c0-0.68,0.23-1.31,0.68-1.9c0.34-0.44,1.04-0.98,2.11-1.61
			c0.54-0.33,1.05-0.66,1.53-1.01c-0.54,0.32-0.96,0.48-1.26,0.48c-0.27,0-0.51-0.14-0.72-0.43c-0.21-0.29-0.31-0.67-0.31-1.15
			c0-1.54,0.4-3.07,1.2-4.6c0.8-1.52,1.76-2.66,2.89-3.43c0.69-0.47,1.56-0.7,2.61-0.7c0.2,0,0.46,0.01,0.76,0.03L95.76,83.87z
			 M93.06,92.58c-0.5,0.51-1.45,1.33-2.87,2.45c-1.25,0.97-2.02,1.67-2.3,2.1c-0.29,0.44-0.43,0.9-0.43,1.38
			c0,0.48,0.18,0.91,0.55,1.29c0.37,0.38,0.82,0.57,1.34,0.57c0.5,0,0.98-0.14,1.45-0.42c0.47-0.28,0.88-0.69,1.22-1.22
			c0.35-0.53,0.59-1.13,0.72-1.8c0.13-0.67,0.2-1.56,0.21-2.67C92.95,94.03,92.99,93.47,93.06,92.58z M94.54,85.73
			c-0.35-0.08-0.66-0.11-0.93-0.11c-0.69,0-1.29,0.21-1.78,0.63c-0.5,0.42-0.92,1.12-1.27,2.11c-0.49,1.4-0.73,2.58-0.73,3.53
			c0,0.39,0.1,0.73,0.29,0.99c0.19,0.27,0.41,0.4,0.65,0.4c0.29,0,0.65-0.16,1.08-0.48c0.43-0.32,0.78-0.73,1.06-1.21
			c0.27-0.49,0.55-1.32,0.84-2.52L94.54,85.73z"/>
		<path class="st7" d="M97.71,86.88l-0.48-0.43c0.73-0.92,1.39-1.58,2-1.97c0.6-0.39,1.11-0.58,1.54-0.58
			c0.23,0,0.41,0.06,0.54,0.18c0.12,0.12,0.19,0.28,0.19,0.48c0,0.24-0.24,1.27-0.71,3.09c-0.77,2.98-1.16,4.77-1.16,5.38
			c0,0.12,0.03,0.22,0.08,0.3s0.11,0.12,0.16,0.12c0.23,0,0.83-0.52,1.8-1.56l0.43,0.48c-1,1.08-1.73,1.77-2.19,2.07
			c-0.46,0.3-0.84,0.45-1.13,0.45c-0.26,0-0.46-0.09-0.61-0.28c-0.15-0.18-0.22-0.44-0.22-0.77c0-1.05,0.55-3.61,1.64-7.68
			c0.05-0.19,0.08-0.36,0.08-0.52c0-0.17-0.07-0.25-0.2-0.25c-0.15,0-0.31,0.07-0.5,0.2C98.76,85.73,98.35,86.15,97.71,86.88z
			 M102.01,78.55c0.23,0,0.41,0.09,0.56,0.26c0.15,0.17,0.22,0.39,0.22,0.66c0,0.37-0.11,0.69-0.33,0.97
			c-0.22,0.28-0.47,0.42-0.75,0.42c-0.22,0-0.4-0.09-0.55-0.26c-0.15-0.18-0.22-0.41-0.22-0.69c0-0.38,0.11-0.7,0.32-0.96
			C101.47,78.68,101.72,78.55,102.01,78.55z"/>
		<path class="st7" d="M105.8,82.02l1.74-0.77l-0.79,3.52h2.27l-0.18,0.89h-2.27l-0.95,4.21c-0.3,1.26-0.45,2.14-0.45,2.64
			c0,0.23,0.04,0.39,0.13,0.49c0.08,0.1,0.2,0.15,0.34,0.15c0.23,0,0.57-0.16,1.04-0.47c0.61-0.41,1.2-0.88,1.75-1.4l0.42,0.58
			c-1.6,1.38-2.67,2.23-3.21,2.54c-0.54,0.31-0.97,0.47-1.3,0.47c-0.27,0-0.48-0.11-0.64-0.34c-0.16-0.23-0.24-0.6-0.24-1.11
			c0-0.6,0.14-1.53,0.42-2.77l1.11-5.01h-1.77l0.2-0.89h1.78L105.8,82.02z"/>
		<path class="st7" d="M117.37,83.74l0.72-0.18l-0.82,3.18c-0.33,1.27-0.64,2.72-0.93,4.38c-0.16,0.9-0.24,1.48-0.24,1.74
			c0,0.26,0.09,0.39,0.27,0.39c0.12,0,0.3-0.09,0.56-0.26c0.45-0.31,0.89-0.7,1.3-1.16l0.35,0.49c-0.83,0.87-1.36,1.4-1.6,1.58
			c-0.47,0.37-0.91,0.64-1.34,0.82c-0.28,0.12-0.55,0.18-0.81,0.18c-0.19,0-0.33-0.05-0.43-0.15c-0.09-0.1-0.14-0.25-0.14-0.44
			c0-0.13,0.03-0.3,0.09-0.52l0.44-1.71c-0.63,0.86-1.38,1.61-2.24,2.23c-0.53,0.39-1.02,0.58-1.47,0.58
			c-0.42,0-0.75-0.17-0.97-0.52c-0.31-0.46-0.46-1.06-0.46-1.81c0-0.89,0.21-1.88,0.62-2.97s0.96-2.08,1.66-2.97
			c0.69-0.89,1.42-1.54,2.19-1.96c0.59-0.32,1.35-0.48,2.28-0.48c0.23,0,0.47,0.02,0.71,0.05L117.37,83.74z M116.01,85.67
			c-0.39-0.09-0.73-0.14-1-0.14c-0.66,0-1.23,0.21-1.72,0.62c-0.49,0.41-0.94,1.16-1.36,2.24c-0.42,1.08-0.63,2.15-0.63,3.23
			c0,0.57,0.08,0.98,0.25,1.23c0.17,0.25,0.39,0.38,0.66,0.38c0.5,0,1.04-0.31,1.62-0.94c0.58-0.62,1-1.52,1.27-2.7L116.01,85.67z"
			/>
		<path class="st7" d="M123.87,91.5l0.37,0.45c-0.57,0.74-1.24,1.41-2.02,2.02c-0.78,0.61-1.42,0.91-1.92,0.91
			c-0.23,0-0.41-0.1-0.56-0.3c-0.15-0.2-0.22-0.47-0.22-0.81c0-0.67,0.23-2.06,0.68-4.17l1.18-5.52c0.43-1.99,0.79-3.33,1.08-4.01
			c0.45-1.03,1.09-1.83,1.92-2.39s1.7-0.85,2.62-0.85c0.31,0,0.56,0.09,0.74,0.26c0.18,0.17,0.27,0.38,0.27,0.63
			c0,0.27-0.09,0.49-0.26,0.66c-0.17,0.17-0.43,0.26-0.76,0.26c-0.22,0-0.53-0.04-0.93-0.13c-0.35-0.07-0.67-0.1-0.97-0.1
			s-0.52,0.07-0.68,0.21c-0.21,0.2-0.4,0.62-0.57,1.26c-0.17,0.64-0.45,1.91-0.83,3.8l-1.09,5.27c-0.54,2.64-0.81,4.02-0.81,4.14
			c0,0.27,0.08,0.4,0.25,0.4c0.16,0,0.39-0.11,0.7-0.33C122.66,92.74,123.26,92.18,123.87,91.5z"/>
		<path class="st7" d="M134.74,95.04l-0.4-6.08c-0.08-1.24-0.12-2.06-0.12-2.45c0-1.13,0.14-2.18,0.42-3.13
			c0.28-0.95,0.78-1.98,1.5-3.07c-0.85,0-1.72,0.24-2.61,0.71c-0.89,0.47-1.53,1.01-1.95,1.63s-0.62,1.23-0.62,1.85
			c0,0.29,0.07,0.59,0.22,0.91c0.19,0.4,0.29,0.71,0.29,0.92c0,0.19-0.05,0.35-0.15,0.47c-0.1,0.12-0.23,0.18-0.39,0.18
			c-0.23,0-0.44-0.14-0.61-0.41c-0.22-0.37-0.33-0.83-0.33-1.37c0-1.02,0.34-2.01,1.01-2.96c0.67-0.95,1.59-1.65,2.76-2.1
			c0.75-0.29,1.84-0.49,3.28-0.6c0.39-0.03,0.78-0.08,1.18-0.13c-0.99,1.66-1.63,3.05-1.93,4.16c-0.3,1.11-0.45,2.62-0.45,4.52
			c0,1.46,0.07,2.79,0.2,4l2.1-2.58l1.8-2.11c1.81-2.14,3.03-3.82,3.66-5.06c0.48-0.93,0.71-1.78,0.71-2.54
			c0-0.42-0.08-0.88-0.25-1.38c-0.11-0.32-0.16-0.56-0.16-0.73c0-0.23,0.07-0.42,0.22-0.59c0.15-0.17,0.33-0.25,0.53-0.25
			c0.28,0,0.51,0.16,0.7,0.49c0.19,0.33,0.28,0.84,0.28,1.53c0,0.68-0.12,1.4-0.37,2.16c-0.25,0.76-0.77,1.73-1.57,2.9
			c-0.8,1.17-2.03,2.73-3.69,4.67C138.28,90.6,136.52,92.76,134.74,95.04z"/>
		<path class="st7" d="M156.28,93.98l-0.11,0.72c-0.26,0.03-0.49,0.04-0.69,0.04c-0.28,0-0.63-0.03-1.03-0.08
			c-0.69-0.08-1.12-0.13-1.3-0.13c-0.31,0-0.78,0.05-1.41,0.16c0.23-0.65,0.42-1.34,0.57-2.06c0.11-0.51,0.23-1.39,0.35-2.64
			c-0.85-0.01-2.17,0.01-3.97,0.06c-1.86,3.25-3.22,5.3-4.08,6.13c-0.87,0.83-1.69,1.25-2.47,1.25c-0.41,0-0.71-0.09-0.91-0.27
			c-0.2-0.18-0.3-0.41-0.3-0.7c0-0.22,0.06-0.4,0.17-0.54c0.12-0.14,0.26-0.21,0.44-0.21c0.1,0,0.24,0.02,0.42,0.06
			c0.44,0.12,0.73,0.18,0.88,0.18c0.49,0,1.03-0.32,1.62-0.96c0.96-1.04,2.38-3.22,4.27-6.54c2.13-3.76,3.85-6.49,5.17-8.2
			c-1.8,0.18-2.92,0.36-3.37,0.53c-0.61,0.23-1.07,0.56-1.38,1.01c-0.31,0.44-0.46,0.9-0.46,1.36c0,0.15,0.05,0.36,0.14,0.64
			c0.1,0.31,0.15,0.54,0.15,0.68c0,0.18-0.06,0.35-0.19,0.49c-0.12,0.14-0.27,0.21-0.45,0.21c-0.25,0-0.45-0.11-0.6-0.32
			c-0.15-0.21-0.22-0.53-0.22-0.96c0-0.6,0.14-1.19,0.41-1.75c0.27-0.57,0.67-1.04,1.18-1.42c0.51-0.38,1.15-0.67,1.92-0.87
			c0.39-0.11,1.09-0.21,2.08-0.29c0.86-0.08,1.4-0.16,1.62-0.24c0.34-0.11,0.67-0.32,0.99-0.64c-0.22,1.03-0.38,1.93-0.47,2.7
			l-0.85,7.27l-0.49,5.21c0.54,0.16,1.03,0.24,1.46,0.24C155.64,94.09,155.95,94.06,156.28,93.98z M152.76,89.06
			c0.35-3.4,0.7-5.89,1.05-7.46c-0.93,1.41-1.5,2.3-1.72,2.67l-2.81,4.79c0.6,0.03,1.47,0.04,2.59,0.04
			C152.15,89.1,152.44,89.09,152.76,89.06z"/>
		<path class="st7" d="M166.81,93.82l-0.15,0.72c-0.5,0.13-0.92,0.19-1.24,0.19c-0.31,0-0.81-0.04-1.52-0.11
			c-0.53-0.05-1.01-0.08-1.43-0.08c-0.73,0-1.48,0.08-2.25,0.23l0.15-0.69c0.74-0.08,1.27-0.26,1.61-0.53
			c0.24-0.19,0.45-0.52,0.62-0.99c0.17-0.47,0.56-2.09,1.17-4.87l1.4-6.67l0.08-0.31c-0.43-0.03-0.76-0.04-0.97-0.04
			c-1.35,0-2.42,0.17-3.21,0.5c-0.79,0.34-1.39,0.82-1.78,1.46c-0.4,0.64-0.6,1.33-0.6,2.07c0,0.26,0.04,0.5,0.12,0.72
			c0.06,0.15,0.22,0.4,0.48,0.73c0.25,0.31,0.37,0.6,0.37,0.86c0,0.23-0.07,0.42-0.22,0.58c-0.15,0.16-0.32,0.24-0.52,0.24
			c-0.31,0-0.55-0.17-0.74-0.5c-0.28-0.49-0.42-1.12-0.42-1.89c0-1.02,0.28-2.02,0.83-2.98c0.55-0.96,1.31-1.71,2.27-2.24
			c0.96-0.53,2.14-0.79,3.51-0.79c0.66,0,1.7,0.11,3.14,0.33c1.02,0.15,1.76,0.23,2.22,0.23c0.46,0,0.78-0.09,0.97-0.26
			c0.19-0.18,0.28-0.41,0.28-0.7c0-0.06-0.01-0.18-0.03-0.35c-0.02-0.16-0.03-0.26-0.03-0.31c0-0.23,0.07-0.41,0.2-0.57
			c0.13-0.15,0.29-0.23,0.47-0.23c0.22,0,0.4,0.09,0.54,0.28c0.14,0.18,0.21,0.43,0.21,0.74c0,0.64-0.29,1.19-0.89,1.65
			c-0.59,0.46-1.58,0.69-2.96,0.69c-0.5,0-1.02-0.03-1.59-0.08c-0.07,0.3-0.3,1.32-0.69,3.07l-0.95,4.35l-0.58,2.65l-0.6,3.03
			c0.49,0.07,0.89,0.1,1.22,0.1C165.77,94.03,166.28,93.96,166.81,93.82z"/>
		<path class="st7" d="M176.03,94.53h-1.63l0.77-3.38c0.37-1.66,0.7-3.24,0.97-4.73c0.07-0.37,0.1-0.6,0.1-0.69
			c0-0.2-0.08-0.3-0.24-0.3c-0.11,0-0.28,0.09-0.5,0.26c-0.23,0.17-0.63,0.6-1.23,1.28l-0.34-0.44c0.7-0.86,1.4-1.51,2.1-1.94
			c0.7-0.43,1.23-0.65,1.6-0.65c0.13,0,0.23,0.04,0.31,0.11c0.08,0.07,0.12,0.16,0.12,0.27c0,0.11-0.05,0.4-0.14,0.87l-0.48,2.26
			c0.74-1.34,1.57-2.48,2.5-3.43c0.45-0.45,0.82-0.68,1.12-0.68c0.22,0,0.4,0.08,0.55,0.25c0.15,0.16,0.22,0.35,0.22,0.57
			c0,0.23-0.07,0.42-0.21,0.58c-0.14,0.16-0.5,0.35-1.07,0.57c-0.54,0.21-0.98,0.46-1.32,0.76c-0.34,0.29-0.71,0.74-1.12,1.35
			c-0.4,0.6-0.69,1.13-0.85,1.58c-0.16,0.45-0.41,1.49-0.73,3.12L176.03,94.53z"/>
		<path class="st7" d="M186.46,91.38l0.36,0.55c-1.79,1.95-3.32,2.93-4.6,2.93c-0.52,0-0.91-0.2-1.19-0.6
			c-0.27-0.4-0.41-1.05-0.41-1.94c0-1.79,0.47-3.58,1.42-5.36c1.06-2.02,2.34-3.03,3.82-3.03c0.52,0,0.91,0.15,1.19,0.45
			c0.27,0.3,0.41,0.71,0.41,1.23c0,0.55-0.16,1.08-0.49,1.61c-0.33,0.53-0.92,1.08-1.76,1.65c-0.42,0.28-1.33,0.78-2.71,1.5
			c-0.07,0.45-0.1,0.88-0.1,1.3c0,0.6,0.08,1.01,0.25,1.25c0.16,0.23,0.4,0.35,0.72,0.35c0.3,0,0.63-0.1,0.99-0.29
			C184.83,92.7,185.53,92.17,186.46,91.38z M182.63,89.55c1.17-0.6,2.06-1.25,2.65-1.95c0.4-0.49,0.6-0.97,0.6-1.45
			c0-0.36-0.08-0.65-0.25-0.86c-0.16-0.21-0.38-0.32-0.64-0.32c-0.27,0-0.53,0.12-0.79,0.35c-0.34,0.31-0.63,0.78-0.87,1.41
			C183,87.66,182.77,88.6,182.63,89.55z"/>
		<path class="st7" d="M191.41,82.02l1.74-0.77l-0.79,3.52h2.27l-0.17,0.89h-2.27l-0.95,4.21c-0.3,1.26-0.45,2.14-0.45,2.64
			c0,0.23,0.04,0.39,0.13,0.49c0.08,0.1,0.2,0.15,0.34,0.15c0.23,0,0.57-0.16,1.04-0.47c0.61-0.41,1.2-0.88,1.75-1.4l0.42,0.58
			c-1.6,1.38-2.67,2.23-3.21,2.54c-0.54,0.31-0.97,0.47-1.3,0.47c-0.27,0-0.48-0.11-0.64-0.34c-0.16-0.23-0.23-0.6-0.23-1.11
			c0-0.6,0.14-1.53,0.42-2.77l1.11-5.01h-1.77l0.2-0.89h1.77L191.41,82.02z"/>
		<path class="st7" d="M202.91,84.28h1.56l-1.03,4.4c-0.61,2.55-0.91,4.01-0.91,4.36c0,0.16,0.03,0.28,0.1,0.36
			c0.07,0.08,0.14,0.13,0.22,0.13c0.12,0,0.27-0.06,0.44-0.19c0.24-0.19,0.7-0.68,1.37-1.46l0.36,0.47
			c-1.47,1.75-2.55,2.63-3.24,2.63c-0.23,0-0.43-0.1-0.6-0.31c-0.16-0.21-0.25-0.5-0.25-0.87c0-0.44,0.08-1.02,0.24-1.75
			c-0.65,0.86-1.45,1.61-2.41,2.25c-0.63,0.43-1.18,0.64-1.65,0.64c-0.26,0-0.46-0.1-0.6-0.29c-0.15-0.19-0.22-0.5-0.22-0.92
			c0-0.33,0.03-0.68,0.1-1.06c0.1-0.53,0.34-1.59,0.72-3.19c0.49-2.02,0.73-3.24,0.73-3.64c0-0.23-0.07-0.35-0.22-0.35
			c-0.13,0-0.31,0.08-0.54,0.23c-0.23,0.16-0.61,0.53-1.16,1.13l-0.48-0.44c0.98-1.01,1.72-1.67,2.24-1.98
			c0.51-0.31,0.93-0.47,1.24-0.47c0.17,0,0.32,0.07,0.43,0.22c0.11,0.15,0.16,0.38,0.16,0.69c0,0.58-0.26,2-0.79,4.27
			c-0.47,2.04-0.7,3.2-0.7,3.49c0,0.18,0.05,0.33,0.15,0.45c0.1,0.13,0.21,0.19,0.32,0.19c0.41,0,0.99-0.39,1.74-1.16
			c0.75-0.78,1.24-1.66,1.48-2.65L202.91,84.28z"/>
		<path class="st7" d="M207.85,94.53h-1.63l0.77-3.38c0.37-1.66,0.7-3.24,0.97-4.73c0.07-0.37,0.1-0.6,0.1-0.69
			c0-0.2-0.08-0.3-0.24-0.3c-0.11,0-0.28,0.09-0.5,0.26c-0.23,0.17-0.63,0.6-1.23,1.28l-0.34-0.44c0.7-0.86,1.4-1.51,2.1-1.94
			c0.7-0.43,1.23-0.65,1.6-0.65c0.13,0,0.23,0.04,0.31,0.11c0.08,0.07,0.12,0.16,0.12,0.27c0,0.11-0.05,0.4-0.14,0.87l-0.48,2.26
			c0.74-1.34,1.57-2.48,2.5-3.43c0.45-0.45,0.82-0.68,1.12-0.68c0.22,0,0.4,0.08,0.55,0.25c0.15,0.16,0.22,0.35,0.22,0.57
			c0,0.23-0.07,0.42-0.21,0.58c-0.14,0.16-0.5,0.35-1.07,0.57c-0.54,0.21-0.98,0.46-1.32,0.76c-0.34,0.29-0.71,0.74-1.12,1.35
			c-0.4,0.6-0.69,1.13-0.85,1.58c-0.16,0.45-0.41,1.49-0.73,3.12L207.85,94.53z"/>
		<path class="st7" d="M212.87,86.91l-0.37-0.44c0.94-1.03,1.68-1.71,2.24-2.05c0.55-0.34,1.03-0.51,1.42-0.51
			c0.15,0,0.27,0.04,0.36,0.11c0.09,0.08,0.13,0.16,0.13,0.26c0,0.08-0.02,0.21-0.05,0.4l-0.49,2.53c0.74-0.95,1.68-1.83,2.8-2.66
			c0.6-0.43,1.09-0.64,1.48-0.64c0.28,0,0.51,0.11,0.67,0.31c0.16,0.21,0.24,0.51,0.24,0.91c0,0.26-0.03,0.55-0.1,0.88
			c-0.12,0.55-0.42,1.73-0.92,3.56c-0.46,1.71-0.7,2.85-0.7,3.41c0,0.17,0.02,0.3,0.07,0.39c0.04,0.09,0.11,0.13,0.19,0.13
			c0.21,0,0.54-0.23,1-0.7c0.32-0.34,0.64-0.65,0.96-0.93l0.27,0.45c-0.67,0.85-1.37,1.54-2.09,2.05c-0.46,0.33-0.84,0.5-1.14,0.5
			c-0.28,0-0.49-0.12-0.65-0.35c-0.15-0.23-0.23-0.61-0.23-1.13c0-0.75,0.4-2.6,1.21-5.57c0.25-1.06,0.37-1.67,0.37-1.85
			c0-0.26-0.13-0.39-0.4-0.39c-0.29,0-0.67,0.18-1.13,0.53c-0.69,0.52-1.26,1.13-1.72,1.84c-0.29,0.45-0.54,1.18-0.73,2.17
			l-0.89,4.4h-1.63c0.31-1.26,0.57-2.46,0.8-3.61l0.97-4.79c0.04-0.19,0.05-0.33,0.05-0.42c0-0.23-0.07-0.34-0.22-0.34
			c-0.12,0-0.28,0.09-0.5,0.27C213.69,85.99,213.27,86.41,212.87,86.91z"/>
		<path class="st7" d="M227.66,83.96c0.65,0,1.15,0.14,1.5,0.43c0.35,0.29,0.53,0.62,0.53,1c0,0.23-0.07,0.42-0.22,0.59
			c-0.15,0.17-0.33,0.25-0.54,0.25c-0.14,0-0.26-0.04-0.36-0.11c-0.1-0.07-0.25-0.25-0.44-0.53c-0.36-0.54-0.71-0.82-1.06-0.82
			c-0.3,0-0.56,0.13-0.79,0.4c-0.23,0.26-0.34,0.59-0.34,0.99c0,0.34,0.07,0.68,0.22,1c0.15,0.32,0.51,0.84,1.11,1.56
			c0.81,0.99,1.21,1.93,1.21,2.81s-0.33,1.66-0.99,2.33c-0.66,0.67-1.5,1-2.54,1c-0.87,0-1.51-0.2-1.94-0.61
			c-0.42-0.41-0.63-0.91-0.63-1.5c0-0.29,0.08-0.54,0.24-0.73c0.16-0.19,0.36-0.29,0.59-0.29c0.2,0,0.38,0.08,0.52,0.23
			c0.15,0.16,0.22,0.34,0.22,0.55c0,0.08,0,0.19-0.01,0.33c0,0.11-0.01,0.2-0.01,0.28c0,0.28,0.1,0.51,0.31,0.7
			c0.2,0.19,0.47,0.29,0.81,0.29c0.39,0,0.74-0.08,1.04-0.23c0.3-0.15,0.53-0.39,0.7-0.7c0.17-0.31,0.25-0.63,0.25-0.94
			c0-0.3-0.08-0.6-0.24-0.9c-0.16-0.3-0.51-0.8-1.06-1.49c-0.76-0.97-1.14-1.9-1.14-2.8c0-0.82,0.29-1.54,0.86-2.15
			C226.04,84.27,226.77,83.96,227.66,83.96z"/>
	</g>
</g>
</svg>
